<svg width="704" height="379" aria-label="A chart." style="overflow: hidden;"><defs id="defs"><clipPath id="_ABSTRACT_RENDERER_ID_775"><rect x="96" y="73" width="486" height="248"></rect></clipPath></defs><rect x="0" y="0" width="704" height="379" stroke="none" stroke-width="0" fill="#ffffff"></rect><g><rect x="594" y="73" width="98" height="101" stroke="none" stroke-width="0" fill-opacity="0" fill="#ffffff"></rect><g><rect x="594" y="73" width="98" height="12" stroke="none" stroke-width="0" fill-opacity="0" fill="#ffffff"></rect><g><text text-anchor="start" x="611" y="83.2" font-family="Arial" font-size="12" stroke="none" stroke-width="0" fill="#222222">max-models</text></g><rect x="594" y="73" width="12" height="12" stroke="none" stroke-width="0" fill="#3366cc"></rect></g><g><rect x="594" y="92" width="98" height="28" stroke="none" stroke-width="0" fill-opacity="0" fill="#ffffff"></rect><g><text text-anchor="start" x="611" y="102.2" font-family="Arial" font-size="12" stroke="none" stroke-width="0" fill="#222222">exp-models,</text><text text-anchor="start" x="611" y="118.2" font-family="Arial" font-size="12" stroke="none" stroke-width="0" fill="#222222">ent-models</text></g><rect x="594" y="92" width="12" height="12" stroke="none" stroke-width="0" fill="#dc3912"></rect></g><g><rect x="594" y="127" width="98" height="12" stroke="none" stroke-width="0" fill-opacity="0" fill="#ffffff"></rect><g><text text-anchor="start" x="611" y="137.2" font-family="Arial" font-size="12" stroke="none" stroke-width="0" fill="#222222">exp-fixed</text></g><rect x="594" y="127" width="12" height="12" stroke="none" stroke-width="0" fill="#ff9900"></rect></g><g><rect x="594" y="146" width="98" height="28" stroke="none" stroke-width="0" fill-opacity="0" fill="#ffffff"></rect><g><text text-anchor="start" x="611" y="156.2" font-family="Arial" font-size="12" stroke="none" stroke-width="0" fill="#222222">parts,</text><text text-anchor="start" x="611" y="172.2" font-family="Arial" font-size="12" stroke="none" stroke-width="0" fill="#222222">min-fixed</text></g><rect x="594" y="146" width="12" height="12" stroke="none" stroke-width="0" fill="#109618"></rect></g></g><g><rect x="96" y="73" width="486" height="248" stroke="none" stroke-width="0" fill-opacity="0" fill="#ffffff"></rect><g clip-path="url(#_ABSTRACT_RENDERER_ID_775)"><g><rect x="122" y="73" width="1" height="248" stroke="none" stroke-width="0" fill="#cccccc"></rect><rect x="188" y="73" width="1" height="248" stroke="none" stroke-width="0" fill="#cccccc"></rect><rect x="253" y="73" width="1" height="248" stroke="none" stroke-width="0" fill="#cccccc"></rect><rect x="319" y="73" width="1" height="248" stroke="none" stroke-width="0" fill="#cccccc"></rect><rect x="384" y="73" width="1" height="248" stroke="none" stroke-width="0" fill="#cccccc"></rect><rect x="450" y="73" width="1" height="248" stroke="none" stroke-width="0" fill="#cccccc"></rect><rect x="515" y="73" width="1" height="248" stroke="none" stroke-width="0" fill="#cccccc"></rect><rect x="581" y="73" width="1" height="248" stroke="none" stroke-width="0" fill="#cccccc"></rect><rect x="96" y="310" width="486" height="1" stroke="none" stroke-width="0" fill="#cccccc"></rect><rect x="96" y="261" width="486" height="1" stroke="none" stroke-width="0" fill="#cccccc"></rect><rect x="96" y="211" width="486" height="1" stroke="none" stroke-width="0" fill="#cccccc"></rect><rect x="96" y="162" width="486" height="1" stroke="none" stroke-width="0" fill="#cccccc"></rect><rect x="96" y="113" width="486" height="1" stroke="none" stroke-width="0" fill="#cccccc"></rect></g><g><rect x="96" y="73" width="1" height="248" stroke="none" stroke-width="0" fill="#333333"></rect><rect x="96" y="320" width="486" height="1" stroke="none" stroke-width="0" fill="#333333"></rect></g><g><path d="M96.5,310.62L109.60810810810811,285.92L122.71621621621622,271.1L135.82432432432432,261.22L148.93243243243245,240.04716L162.04054054054055,224.17000000000002L175.14864864864865,211.82L188.25675675675677,211.82L201.36486486486487,211.82L214.47297297297297,211.82L227.5810810810811,204.22228L240.6891891891892,183.59284000000002L253.7972972972973,178.88996000000003L266.9054054054054,168.59500000000003L280.01351351351354,171.13416L293.12162162162167,162.42000000000002L306.22972972972974,154.62468L319.3378378378378,147.60000000000002L332.44594594594594,141.24716L345.55405405405406,135.47724000000002L358.6621621621622,130.20132000000004L371.77027027027026,125.37000000000003L384.8783783783784,120.92400000000004L397.9864864864865,116.82380000000003L411.0945945945946,113.02000000000004L424.2027027027027,116.54716000000002L437.31081081081084,113.02000000000004L450.41891891891896,116.31004000000004L463.52702702702703,116.21124000000006L476.63513513513516,116.10256000000004L489.7432432432433,116.01364000000004L502.85135135135135,113.02000000000004L515.9594594594595,115.84568000000002L529.0675675675676,113.02000000000004L542.1756756756756,113.02000000000004L555.2837837837837,113.02000000000004L568.3918918918919,113.02000000000004L581.5,110.54999999999998" stroke="#3366cc" stroke-width="2" fill-opacity="1" fill="none"></path><path d="M96.5,310.62L109.60810810810811,285.92L122.71621621621622,271.1L135.82432432432432,261.22L148.93243243243245,240.04716L162.04054054054055,224.17000000000002L175.14864864864865,211.82L188.25675675675677,211.82L201.36486486486487,211.82L214.47297297297297,211.82L227.5810810810811,204.22228L240.6891891891892,197.70148L253.7972972972973,192.06L266.9054054054054,180.94500000000002L280.01351351351354,171.13416L293.12162162162167,162.42000000000002L306.22972972972974,154.62468L319.3378378378378,147.60000000000002L332.44594594594594,141.24716L345.55405405405406,135.47724000000002L358.6621621621622,130.20132000000004L371.77027027027026,125.37000000000003L384.8783783783784,120.92400000000004L397.9864864864865,116.82380000000003L411.0945945945946,113.02000000000004L424.2027027027027,113.02000000000004L437.31081081081084,113.02000000000004L450.41891891891896,113.02000000000004L463.52702702702703,113.02000000000004L476.63513513513516,113.02000000000004L489.7432432432433,113.02000000000004L502.85135135135135,113.02000000000004L515.9594594594595,113.02000000000004L529.0675675675676,113.02000000000004L542.1756756756756,113.02000000000004L555.2837837837837,113.02000000000004L568.3918918918919,113.02000000000004L581.5,110.54999999999998" stroke="#dc3912" stroke-width="2" fill-opacity="1" fill="none"></path><path d="M96.5,310.62L109.60810810810811,285.92L122.71621621621622,251.33999999999997L135.82432432432432,228.28996L148.93243243243245,240.04716L162.04054054054055,224.17000000000002L175.14864864864865,222.79668L188.25675675675677,201.94L201.36486486486487,211.82L214.47297297297297,195.35004L227.5810810810811,181.41924L240.6891891891892,169.47432000000003L253.7972972972973,165.71004000000002L266.9054054054054,156.24500000000003L280.01351351351354,147.88652000000002L293.12162162162167,145.95004L306.22972972972974,154.62468L319.3378378378378,152.54000000000002L332.44594594594594,145.95004L345.55405405405406,135.47724000000002L358.6621621621622,134.49912000000003L371.77027027027026,125.37000000000003L384.8783783783784,124.87600000000003L397.9864864864865,116.82380000000003L411.0945945945946,116.67560000000003L424.2027027027027,109.49284L437.31081081081084,109.61139999999997L450.41891891891896,103.14000000000007L463.52702702702703,103.45616000000004L476.63513513513516,97.58744000000002L489.7432432432433,98.05179999999999L502.85135135135135,92.67708000000005L515.9594594594595,96.08568L529.0675675675676,91.06664000000004L542.1756756756756,86.31436000000005L555.2837837837837,84.41740000000001L568.3918918918919,87.68768L581.5,85.85" stroke="#ff9900" stroke-width="2" fill-opacity="1" fill="none"></path><path d="M96.5,310.62L109.60810810810811,285.92L122.71621621621622,251.33999999999997L135.82432432432432,211.82L148.93243243243245,169.47432000000003L162.04054054054055,125.37000000000003L175.14864864864865,80.08995999999999L188.25675675675677,33.980000000000075" stroke="#109618" stroke-width="2" fill-opacity="1" fill="none"></path></g></g><g><circle cx="96.5" cy="310.62" r="2" stroke="none" stroke-width="0" fill="#3366cc"></circle><circle cx="109.60810810810811" cy="285.92" r="2" stroke="none" stroke-width="0" fill="#3366cc"></circle><circle cx="122.71621621621622" cy="271.1" r="2" stroke="none" stroke-width="0" fill="#3366cc"></circle><circle cx="135.82432432432432" cy="261.22" r="2" stroke="none" stroke-width="0" fill="#3366cc"></circle><circle cx="148.93243243243245" cy="240.04716" r="2" stroke="none" stroke-width="0" fill="#3366cc"></circle><circle cx="162.04054054054055" cy="224.17000000000002" r="2" stroke="none" stroke-width="0" fill="#3366cc"></circle><circle cx="175.14864864864865" cy="211.82" r="2" stroke="none" stroke-width="0" fill="#3366cc"></circle><circle cx="188.25675675675677" cy="211.82" r="2" stroke="none" stroke-width="0" fill="#3366cc"></circle><circle cx="201.36486486486487" cy="211.82" r="2" stroke="none" stroke-width="0" fill="#3366cc"></circle><circle cx="214.47297297297297" cy="211.82" r="2" stroke="none" stroke-width="0" fill="#3366cc"></circle><circle cx="227.5810810810811" cy="204.22228" r="2" stroke="none" stroke-width="0" fill="#3366cc"></circle><circle cx="240.6891891891892" cy="183.59284000000002" r="2" stroke="none" stroke-width="0" fill="#3366cc"></circle><circle cx="253.7972972972973" cy="178.88996000000003" r="2" stroke="none" stroke-width="0" fill="#3366cc"></circle><circle cx="266.9054054054054" cy="168.59500000000003" r="2" stroke="none" stroke-width="0" fill="#3366cc"></circle><circle cx="280.01351351351354" cy="171.13416" r="2" stroke="none" stroke-width="0" fill="#3366cc"></circle><circle cx="293.12162162162167" cy="162.42000000000002" r="2" stroke="none" stroke-width="0" fill="#3366cc"></circle><circle cx="306.22972972972974" cy="154.62468" r="2" stroke="none" stroke-width="0" fill="#3366cc"></circle><circle cx="319.3378378378378" cy="147.60000000000002" r="2" stroke="none" stroke-width="0" fill="#3366cc"></circle><circle cx="332.44594594594594" cy="141.24716" r="2" stroke="none" stroke-width="0" fill="#3366cc"></circle><circle cx="345.55405405405406" cy="135.47724000000002" r="2" stroke="none" stroke-width="0" fill="#3366cc"></circle><circle cx="358.6621621621622" cy="130.20132000000004" r="2" stroke="none" stroke-width="0" fill="#3366cc"></circle><circle cx="371.77027027027026" cy="125.37000000000003" r="2" stroke="none" stroke-width="0" fill="#3366cc"></circle><circle cx="384.8783783783784" cy="120.92400000000004" r="2" stroke="none" stroke-width="0" fill="#3366cc"></circle><circle cx="397.9864864864865" cy="116.82380000000003" r="2" stroke="none" stroke-width="0" fill="#3366cc"></circle><circle cx="411.0945945945946" cy="113.02000000000004" r="2" stroke="none" stroke-width="0" fill="#3366cc"></circle><circle cx="424.2027027027027" cy="116.54716000000002" r="2" stroke="none" stroke-width="0" fill="#3366cc"></circle><circle cx="437.31081081081084" cy="113.02000000000004" r="2" stroke="none" stroke-width="0" fill="#3366cc"></circle><circle cx="450.41891891891896" cy="116.31004000000004" r="2" stroke="none" stroke-width="0" fill="#3366cc"></circle><circle cx="463.52702702702703" cy="116.21124000000006" r="2" stroke="none" stroke-width="0" fill="#3366cc"></circle><circle cx="476.63513513513516" cy="116.10256000000004" r="2" stroke="none" stroke-width="0" fill="#3366cc"></circle><circle cx="489.7432432432433" cy="116.01364000000004" r="2" stroke="none" stroke-width="0" fill="#3366cc"></circle><circle cx="502.85135135135135" cy="113.02000000000004" r="2" stroke="none" stroke-width="0" fill="#3366cc"></circle><circle cx="515.9594594594595" cy="115.84568000000002" r="2" stroke="none" stroke-width="0" fill="#3366cc"></circle><circle cx="529.0675675675676" cy="113.02000000000004" r="2" stroke="none" stroke-width="0" fill="#3366cc"></circle><circle cx="542.1756756756756" cy="113.02000000000004" r="2" stroke="none" stroke-width="0" fill="#3366cc"></circle><circle cx="555.2837837837837" cy="113.02000000000004" r="2" stroke="none" stroke-width="0" fill="#3366cc"></circle><circle cx="568.3918918918919" cy="113.02000000000004" r="2" stroke="none" stroke-width="0" fill="#3366cc"></circle><circle cx="581.5" cy="110.54999999999998" r="2" stroke="none" stroke-width="0" fill="#3366cc"></circle><circle cx="96.5" cy="310.62" r="2" stroke="none" stroke-width="0" fill="#dc3912"></circle><circle cx="109.60810810810811" cy="285.92" r="2" stroke="none" stroke-width="0" fill="#dc3912"></circle><circle cx="122.71621621621622" cy="271.1" r="2" stroke="none" stroke-width="0" fill="#dc3912"></circle><circle cx="135.82432432432432" cy="261.22" r="2" stroke="none" stroke-width="0" fill="#dc3912"></circle><circle cx="148.93243243243245" cy="240.04716" r="2" stroke="none" stroke-width="0" fill="#dc3912"></circle><circle cx="162.04054054054055" cy="224.17000000000002" r="2" stroke="none" stroke-width="0" fill="#dc3912"></circle><circle cx="175.14864864864865" cy="211.82" r="2" stroke="none" stroke-width="0" fill="#dc3912"></circle><circle cx="188.25675675675677" cy="211.82" r="2" stroke="none" stroke-width="0" fill="#dc3912"></circle><circle cx="201.36486486486487" cy="211.82" r="2" stroke="none" stroke-width="0" fill="#dc3912"></circle><circle cx="214.47297297297297" cy="211.82" r="2" stroke="none" stroke-width="0" fill="#dc3912"></circle><circle cx="227.5810810810811" cy="204.22228" r="2" stroke="none" stroke-width="0" fill="#dc3912"></circle><circle cx="240.6891891891892" cy="197.70148" r="2" stroke="none" stroke-width="0" fill="#dc3912"></circle><circle cx="253.7972972972973" cy="192.06" r="2" stroke="none" stroke-width="0" fill="#dc3912"></circle><circle cx="266.9054054054054" cy="180.94500000000002" r="2" stroke="none" stroke-width="0" fill="#dc3912"></circle><circle cx="280.01351351351354" cy="171.13416" r="2" stroke="none" stroke-width="0" fill="#dc3912"></circle><circle cx="293.12162162162167" cy="162.42000000000002" r="2" stroke="none" stroke-width="0" fill="#dc3912"></circle><circle cx="306.22972972972974" cy="154.62468" r="2" stroke="none" stroke-width="0" fill="#dc3912"></circle><circle cx="319.3378378378378" cy="147.60000000000002" r="2" stroke="none" stroke-width="0" fill="#dc3912"></circle><circle cx="332.44594594594594" cy="141.24716" r="2" stroke="none" stroke-width="0" fill="#dc3912"></circle><circle cx="345.55405405405406" cy="135.47724000000002" r="2" stroke="none" stroke-width="0" fill="#dc3912"></circle><circle cx="358.6621621621622" cy="130.20132000000004" r="2" stroke="none" stroke-width="0" fill="#dc3912"></circle><circle cx="371.77027027027026" cy="125.37000000000003" r="2" stroke="none" stroke-width="0" fill="#dc3912"></circle><circle cx="384.8783783783784" cy="120.92400000000004" r="2" stroke="none" stroke-width="0" fill="#dc3912"></circle><circle cx="397.9864864864865" cy="116.82380000000003" r="2" stroke="none" stroke-width="0" fill="#dc3912"></circle><circle cx="411.0945945945946" cy="113.02000000000004" r="2" stroke="none" stroke-width="0" fill="#dc3912"></circle><circle cx="424.2027027027027" cy="113.02000000000004" r="2" stroke="none" stroke-width="0" fill="#dc3912"></circle><circle cx="437.31081081081084" cy="113.02000000000004" r="2" stroke="none" stroke-width="0" fill="#dc3912"></circle><circle cx="450.41891891891896" cy="113.02000000000004" r="2" stroke="none" stroke-width="0" fill="#dc3912"></circle><circle cx="463.52702702702703" cy="113.02000000000004" r="2" stroke="none" stroke-width="0" fill="#dc3912"></circle><circle cx="476.63513513513516" cy="113.02000000000004" r="2" stroke="none" stroke-width="0" fill="#dc3912"></circle><circle cx="489.7432432432433" cy="113.02000000000004" r="2" stroke="none" stroke-width="0" fill="#dc3912"></circle><circle cx="502.85135135135135" cy="113.02000000000004" r="2" stroke="none" stroke-width="0" fill="#dc3912"></circle><circle cx="515.9594594594595" cy="113.02000000000004" r="2" stroke="none" stroke-width="0" fill="#dc3912"></circle><circle cx="529.0675675675676" cy="113.02000000000004" r="2" stroke="none" stroke-width="0" fill="#dc3912"></circle><circle cx="542.1756756756756" cy="113.02000000000004" r="2" stroke="none" stroke-width="0" fill="#dc3912"></circle><circle cx="555.2837837837837" cy="113.02000000000004" r="2" stroke="none" stroke-width="0" fill="#dc3912"></circle><circle cx="568.3918918918919" cy="113.02000000000004" r="2" stroke="none" stroke-width="0" fill="#dc3912"></circle><circle cx="581.5" cy="110.54999999999998" r="2" stroke="none" stroke-width="0" fill="#dc3912"></circle><circle cx="96.5" cy="310.62" r="2" stroke="none" stroke-width="0" fill="#ff9900"></circle><circle cx="109.60810810810811" cy="285.92" r="2" stroke="none" stroke-width="0" fill="#ff9900"></circle><circle cx="122.71621621621622" cy="251.33999999999997" r="2" stroke="none" stroke-width="0" fill="#ff9900"></circle><circle cx="135.82432432432432" cy="228.28996" r="2" stroke="none" stroke-width="0" fill="#ff9900"></circle><circle cx="148.93243243243245" cy="240.04716" r="2" stroke="none" stroke-width="0" fill="#ff9900"></circle><circle cx="162.04054054054055" cy="224.17000000000002" r="2" stroke="none" stroke-width="0" fill="#ff9900"></circle><circle cx="175.14864864864865" cy="222.79668" r="2" stroke="none" stroke-width="0" fill="#ff9900"></circle><circle cx="188.25675675675677" cy="201.94" r="2" stroke="none" stroke-width="0" fill="#ff9900"></circle><circle cx="201.36486486486487" cy="211.82" r="2" stroke="none" stroke-width="0" fill="#ff9900"></circle><circle cx="214.47297297297297" cy="195.35004" r="2" stroke="none" stroke-width="0" fill="#ff9900"></circle><circle cx="227.5810810810811" cy="181.41924" r="2" stroke="none" stroke-width="0" fill="#ff9900"></circle><circle cx="240.6891891891892" cy="169.47432000000003" r="2" stroke="none" stroke-width="0" fill="#ff9900"></circle><circle cx="253.7972972972973" cy="165.71004000000002" r="2" stroke="none" stroke-width="0" fill="#ff9900"></circle><circle cx="266.9054054054054" cy="156.24500000000003" r="2" stroke="none" stroke-width="0" fill="#ff9900"></circle><circle cx="280.01351351351354" cy="147.88652000000002" r="2" stroke="none" stroke-width="0" fill="#ff9900"></circle><circle cx="293.12162162162167" cy="145.95004" r="2" stroke="none" stroke-width="0" fill="#ff9900"></circle><circle cx="306.22972972972974" cy="154.62468" r="2" stroke="none" stroke-width="0" fill="#ff9900"></circle><circle cx="319.3378378378378" cy="152.54000000000002" r="2" stroke="none" stroke-width="0" fill="#ff9900"></circle><circle cx="332.44594594594594" cy="145.95004" r="2" stroke="none" stroke-width="0" fill="#ff9900"></circle><circle cx="345.55405405405406" cy="135.47724000000002" r="2" stroke="none" stroke-width="0" fill="#ff9900"></circle><circle cx="358.6621621621622" cy="134.49912000000003" r="2" stroke="none" stroke-width="0" fill="#ff9900"></circle><circle cx="371.77027027027026" cy="125.37000000000003" r="2" stroke="none" stroke-width="0" fill="#ff9900"></circle><circle cx="384.8783783783784" cy="124.87600000000003" r="2" stroke="none" stroke-width="0" fill="#ff9900"></circle><circle cx="397.9864864864865" cy="116.82380000000003" r="2" stroke="none" stroke-width="0" fill="#ff9900"></circle><circle cx="411.0945945945946" cy="116.67560000000003" r="2" stroke="none" stroke-width="0" fill="#ff9900"></circle><circle cx="424.2027027027027" cy="109.49284" r="2" stroke="none" stroke-width="0" fill="#ff9900"></circle><circle cx="437.31081081081084" cy="109.61139999999997" r="2" stroke="none" stroke-width="0" fill="#ff9900"></circle><circle cx="450.41891891891896" cy="103.14000000000007" r="2" stroke="none" stroke-width="0" fill="#ff9900"></circle><circle cx="463.52702702702703" cy="103.45616000000004" r="2" stroke="none" stroke-width="0" fill="#ff9900"></circle><circle cx="476.63513513513516" cy="97.58744000000002" r="2" stroke="none" stroke-width="0" fill="#ff9900"></circle><circle cx="489.7432432432433" cy="98.05179999999999" r="2" stroke="none" stroke-width="0" fill="#ff9900"></circle><circle cx="502.85135135135135" cy="92.67708000000005" r="2" stroke="none" stroke-width="0" fill="#ff9900"></circle><circle cx="515.9594594594595" cy="96.08568" r="2" stroke="none" stroke-width="0" fill="#ff9900"></circle><circle cx="529.0675675675676" cy="91.06664000000004" r="2" stroke="none" stroke-width="0" fill="#ff9900"></circle><circle cx="542.1756756756756" cy="86.31436000000005" r="2" stroke="none" stroke-width="0" fill="#ff9900"></circle><circle cx="555.2837837837837" cy="84.41740000000001" r="2" stroke="none" stroke-width="0" fill="#ff9900"></circle><circle cx="568.3918918918919" cy="87.68768" r="2" stroke="none" stroke-width="0" fill="#ff9900"></circle><circle cx="581.5" cy="85.85" r="2" stroke="none" stroke-width="0" fill="#ff9900"></circle><circle cx="96.5" cy="310.62" r="2" stroke="none" stroke-width="0" fill="#109618"></circle><circle cx="109.60810810810811" cy="285.92" r="2" stroke="none" stroke-width="0" fill="#109618"></circle><circle cx="122.71621621621622" cy="251.33999999999997" r="2" stroke="none" stroke-width="0" fill="#109618"></circle><circle cx="135.82432432432432" cy="211.82" r="2" stroke="none" stroke-width="0" fill="#109618"></circle><circle cx="148.93243243243245" cy="169.47432000000003" r="2" stroke="none" stroke-width="0" fill="#109618"></circle><circle cx="162.04054054054055" cy="125.37000000000003" r="2" stroke="none" stroke-width="0" fill="#109618"></circle><circle cx="175.14864864864865" cy="80.08995999999999" r="2" stroke="none" stroke-width="0" fill="#109618"></circle></g><g><g><g><text text-anchor="middle" x="122.71621621621622" y="340.05" font-family="Arial" font-size="13" stroke="#ffffff" stroke-width="3" fill="#444444" aria-hidden="true">5</text><text text-anchor="middle" x="122.71621621621622" y="340.05" font-family="Arial" font-size="13" stroke="none" stroke-width="0" fill="#444444">5</text></g></g><g><g><text text-anchor="middle" x="188.25675675675677" y="340.05" font-family="Arial" font-size="13" stroke="#ffffff" stroke-width="3" fill="#444444" aria-hidden="true">10</text><text text-anchor="middle" x="188.25675675675677" y="340.05" font-family="Arial" font-size="13" stroke="none" stroke-width="0" fill="#444444">10</text></g></g><g><g><text text-anchor="middle" x="253.7972972972973" y="340.05" font-family="Arial" font-size="13" stroke="#ffffff" stroke-width="3" fill="#444444" aria-hidden="true">15</text><text text-anchor="middle" x="253.7972972972973" y="340.05" font-family="Arial" font-size="13" stroke="none" stroke-width="0" fill="#444444">15</text></g></g><g><g><text text-anchor="middle" x="319.3378378378378" y="340.05" font-family="Arial" font-size="13" stroke="#ffffff" stroke-width="3" fill="#444444" aria-hidden="true">20</text><text text-anchor="middle" x="319.3378378378378" y="340.05" font-family="Arial" font-size="13" stroke="none" stroke-width="0" fill="#444444">20</text></g></g><g><g><text text-anchor="middle" x="384.8783783783784" y="340.05" font-family="Arial" font-size="13" stroke="#ffffff" stroke-width="3" fill="#444444" aria-hidden="true">25</text><text text-anchor="middle" x="384.8783783783784" y="340.05" font-family="Arial" font-size="13" stroke="none" stroke-width="0" fill="#444444">25</text></g></g><g><g><text text-anchor="middle" x="450.41891891891896" y="340.05" font-family="Arial" font-size="13" stroke="#ffffff" stroke-width="3" fill="#444444" aria-hidden="true">30</text><text text-anchor="middle" x="450.41891891891896" y="340.05" font-family="Arial" font-size="13" stroke="none" stroke-width="0" fill="#444444">30</text></g></g><g><g><text text-anchor="middle" x="515.9594594594595" y="340.05" font-family="Arial" font-size="13" stroke="#ffffff" stroke-width="3" fill="#444444" aria-hidden="true">35</text><text text-anchor="middle" x="515.9594594594595" y="340.05" font-family="Arial" font-size="13" stroke="none" stroke-width="0" fill="#444444">35</text></g></g><g><g><text text-anchor="middle" x="581.5" y="340.05" font-family="Arial" font-size="13" stroke="#ffffff" stroke-width="3" fill="#444444" aria-hidden="true">40</text><text text-anchor="middle" x="581.5" y="340.05" font-family="Arial" font-size="13" stroke="none" stroke-width="0" fill="#444444">40</text></g></g><g><g><text text-anchor="end" x="83" y="315.17" font-family="Arial" font-size="13" stroke="#ffffff" stroke-width="3" fill="#444444" aria-hidden="true">2</text><text text-anchor="end" x="83" y="315.17" font-family="Arial" font-size="13" stroke="none" stroke-width="0" fill="#444444">2</text></g></g><g><g><text text-anchor="end" x="83" y="265.77000000000004" font-family="Arial" font-size="13" stroke="#ffffff" stroke-width="3" fill="#444444" aria-hidden="true">2.5</text><text text-anchor="end" x="83" y="265.77000000000004" font-family="Arial" font-size="13" stroke="none" stroke-width="0" fill="#444444">2.5</text></g></g><g><g><text text-anchor="end" x="83" y="216.37" font-family="Arial" font-size="13" stroke="#ffffff" stroke-width="3" fill="#444444" aria-hidden="true">3</text><text text-anchor="end" x="83" y="216.37" font-family="Arial" font-size="13" stroke="none" stroke-width="0" fill="#444444">3</text></g></g><g><g><text text-anchor="end" x="83" y="166.97000000000003" font-family="Arial" font-size="13" stroke="#ffffff" stroke-width="3" fill="#444444" aria-hidden="true">3.5</text><text text-anchor="end" x="83" y="166.97000000000003" font-family="Arial" font-size="13" stroke="none" stroke-width="0" fill="#444444">3.5</text></g></g><g><g><text text-anchor="end" x="83" y="117.57000000000004" font-family="Arial" font-size="13" stroke="#ffffff" stroke-width="3" fill="#444444" aria-hidden="true">4</text><text text-anchor="end" x="83" y="117.57000000000004" font-family="Arial" font-size="13" stroke="none" stroke-width="0" fill="#444444">4</text></g></g></g></g><g><g><g><text text-anchor="middle" x="339" y="365.05" font-family="Arial" font-size="13" font-style="italic" stroke="#ffffff" stroke-width="3" fill="#222222" aria-hidden="true">Number of coins</text><text text-anchor="middle" x="339" y="365.05" font-family="Arial" font-size="13" font-style="italic" stroke="none" stroke-width="0" fill="#222222">Number of coins</text></g></g><g><g><text text-anchor="middle" x="36.55" y="197" font-family="Arial" font-size="13" font-style="italic" transform="rotate(-90 36.55 197)" stroke="#ffffff" stroke-width="3" fill="#222222" aria-hidden="true">Average-case number of experiments</text><text text-anchor="middle" x="36.55" y="197" font-family="Arial" font-size="13" font-style="italic" transform="rotate(-90 36.55 197)" stroke="none" stroke-width="0" fill="#222222">Average-case number of experiments</text></g></g></g><g></g></svg>