<?xml version="1.0" encoding="UTF-8" standalone="no"?>
<!-- Created with Inkscape (http://www.inkscape.org/) -->

<svg
   xmlns:dc="http://purl.org/dc/elements/1.1/"
   xmlns:cc="http://creativecommons.org/ns#"
   xmlns:rdf="http://www.w3.org/1999/02/22-rdf-syntax-ns#"
   xmlns:svg="http://www.w3.org/2000/svg"
   xmlns="http://www.w3.org/2000/svg"
   xmlns:xlink="http://www.w3.org/1999/xlink"
   xmlns:sodipodi="http://sodipodi.sourceforge.net/DTD/sodipodi-0.dtd"
   xmlns:inkscape="http://www.inkscape.org/namespaces/inkscape"
   width="252.65596"
   height="158.05882"
   id="svg2"
   sodipodi:version="0.32"
   inkscape:version="0.48.2 r9819"
   version="1.0"
   sodipodi:docname="mastermind-matching.svg"
   inkscape:export-filename="/Users/mirek/dip/thesis/pictures/mastermind-matching.png"
   inkscape:export-xdpi="149.70213"
   inkscape:export-ydpi="149.70213">
  <defs
     id="defs4">
    <linearGradient
       inkscape:collect="always"
       id="linearGradient16494">
      <stop
         style="stop-color:#ffffff;stop-opacity:1;"
         offset="0"
         id="stop16496" />
      <stop
         style="stop-color:#ffffff;stop-opacity:0;"
         offset="1"
         id="stop16498" />
    </linearGradient>
    <radialGradient
       inkscape:collect="always"
       xlink:href="#linearGradient16494"
       id="radialGradient4183"
       gradientUnits="userSpaceOnUse"
       gradientTransform="matrix(0.504049,-0.281005,0.349427,0.626786,61.97119,135.5474)"
       cx="201.48502"
       cy="-3.1868165"
       fx="201.48502"
       fy="-3.1868165"
       r="19.272348" />
  </defs>
  <sodipodi:namedview
     id="base"
     pagecolor="#ffffff"
     bordercolor="#666666"
     borderopacity="1.0"
     inkscape:pageopacity="0.0"
     inkscape:pageshadow="2"
     inkscape:zoom="0.8629274"
     inkscape:cx="221.95262"
     inkscape:cy="137.08879"
     inkscape:document-units="px"
     inkscape:current-layer="layer1"
     inkscape:window-width="1280"
     inkscape:window-height="756"
     inkscape:window-x="-4"
     inkscape:window-y="0"
     showgrid="false"
     inkscape:snap-smooth-nodes="false"
     inkscape:snap-object-midpoints="false"
     inkscape:object-paths="true"
     inkscape:snap-nodes="false"
     units="mm"
     fit-margin-left="5"
     fit-margin-right="5"
     fit-margin-top="5"
     fit-margin-bottom="5"
     inkscape:window-maximized="0" />
  <metadata
     id="metadata7">
    <rdf:RDF>
      <cc:Work
         rdf:about="">
        <dc:format>image/svg+xml</dc:format>
        <dc:type
           rdf:resource="http://purl.org/dc/dcmitype/StillImage" />
        <dc:title></dc:title>
      </cc:Work>
    </rdf:RDF>
  </metadata>
  <g
     inkscape:label="Ebene 1"
     inkscape:groupmode="layer"
     id="layer1"
     transform="translate(-43.243342,-4.6470861)">
    <path
       style="fill:none;stroke:#000000;stroke-width:3;stroke-linecap:butt;stroke-linejoin:miter;stroke-miterlimit:4;stroke-opacity:1;stroke-dasharray:none"
       d="m 195.84195,125.36057 49.3966,-83.7246"
       id="path3365"
       inkscape:connector-curvature="0" />
    <path
       style="fill:none;stroke:#000000;stroke-width:3;stroke-linecap:butt;stroke-linejoin:miter;stroke-miterlimit:4;stroke-opacity:1;stroke-dasharray:none"
       d="M 245.2385,125.71702 148.69495,41.63597"
       id="path3367"
       inkscape:connector-curvature="0" />
    <path
       style="fill:none;stroke:#000000;stroke-width:3;stroke-linecap:butt;stroke-linejoin:miter;stroke-miterlimit:4;stroke-opacity:1;stroke-dasharray:none"
       d="m 100.4232,125.71702 0,-84.08105"
       id="path3281"
       inkscape:connector-curvature="0" />
    <path
       transform="translate(-57.35391,44.370178)"
       d="m 176.54946,81.34684 c 0,10.367682 -8.40466,18.77235 -18.77235,18.77235 -10.36768,0 -18.77234,-8.404668 -18.77234,-18.77235 0,-10.367682 8.40466,-18.772348 18.77234,-18.772348 10.36769,0 18.77235,8.404666 18.77235,18.772348 z"
       sodipodi:ry="18.772348"
       sodipodi:rx="18.772348"
       sodipodi:cy="81.34684"
       sodipodi:cx="157.77711"
       id="path10142"
       style="fill:#00cc03;fill-opacity:1;fill-rule:nonzero;stroke:#000000;stroke-width:1;stroke-linecap:square;stroke-linejoin:miter;stroke-miterlimit:2;stroke-opacity:1;stroke-dasharray:none;stroke-dashoffset:0"
       sodipodi:type="arc" />
    <path
       sodipodi:type="arc"
       style="fill:#00cc03;fill-opacity:1;fill-rule:nonzero;stroke:#000000;stroke-width:1;stroke-linecap:square;stroke-linejoin:miter;stroke-miterlimit:2;stroke-opacity:1;stroke-dasharray:none;stroke-dashoffset:0"
       id="path10144"
       sodipodi:cx="157.77711"
       sodipodi:cy="81.34684"
       sodipodi:rx="18.772348"
       sodipodi:ry="18.772348"
       d="m 176.54946,81.34684 c 0,10.367682 -8.40466,18.77235 -18.77235,18.77235 -10.36768,0 -18.77234,-8.404668 -18.77234,-18.77235 0,-10.367682 8.40466,-18.772348 18.77234,-18.772348 10.36769,0 18.77235,8.404666 18.77235,18.772348 z"
       transform="translate(38.064838,44.37018)" />
    <path
       sodipodi:type="arc"
       style="fill:#ff5c04;fill-opacity:1;fill-rule:nonzero;stroke:#000000;stroke-width:1;stroke-linecap:square;stroke-linejoin:miter;stroke-miterlimit:2;stroke-opacity:1;stroke-dasharray:none;stroke-dashoffset:0"
       id="use10146"
       sodipodi:cx="157.77711"
       sodipodi:cy="81.34684"
       sodipodi:rx="18.772348"
       sodipodi:ry="18.772348"
       d="m 176.54946,81.34684 c 0,10.367682 -8.40466,18.77235 -18.77235,18.77235 -10.36768,0 -18.77234,-8.404668 -18.77234,-18.77235 0,-10.367682 8.40466,-18.772348 18.77234,-18.772348 10.36769,0 18.77235,8.404666 18.77235,18.772348 z"
       transform="translate(-9.082162,44.370177)" />
    <path
       sodipodi:type="arc"
       style="fill:#c61d00;fill-opacity:1;fill-rule:nonzero;stroke:#000000;stroke-width:1;stroke-linecap:square;stroke-linejoin:miter;stroke-miterlimit:2;stroke-opacity:1;stroke-dasharray:none;stroke-dashoffset:0"
       id="use10148"
       sodipodi:cx="157.77711"
       sodipodi:cy="81.34684"
       sodipodi:rx="18.772348"
       sodipodi:ry="18.772348"
       d="m 176.54946,81.34684 c 0,10.367682 -8.40466,18.77235 -18.77235,18.77235 -10.36768,0 -18.77234,-8.404668 -18.77234,-18.77235 0,-10.367682 8.40466,-18.772348 18.77234,-18.772348 10.36769,0 18.77235,8.404666 18.77235,18.772348 z"
       transform="translate(87.46139,44.370178)" />
    <path
       transform="translate(39.972379,25.56926)"
       d="m 70.143091,58.913933 c 0,5.352893 -4.339377,9.69227 -9.69227,9.69227 -5.352893,0 -9.69227,-4.339377 -9.69227,-9.69227 0,-5.352893 4.339377,-9.69227 9.69227,-9.69227 5.352893,0 9.69227,4.339377 9.69227,9.69227 z"
       sodipodi:ry="9.6922703"
       sodipodi:rx="9.6922703"
       sodipodi:cy="58.913933"
       sodipodi:cx="60.450821"
       id="path10154"
       style="fill:#1b1818;fill-opacity:1;fill-rule:nonzero;stroke:#000000;stroke-width:1;stroke-linecap:square;stroke-linejoin:miter;stroke-miterlimit:2;stroke-opacity:1;stroke-dasharray:none;stroke-dashoffset:0"
       sodipodi:type="arc" />
    <path
       sodipodi:type="arc"
       style="fill:#f5f5f5;fill-opacity:1;fill-rule:nonzero;stroke:#000000;stroke-width:1;stroke-linecap:square;stroke-linejoin:miter;stroke-miterlimit:2;stroke-opacity:1;stroke-dasharray:none;stroke-dashoffset:0"
       id="use10156"
       sodipodi:cx="60.450821"
       sodipodi:cy="58.913933"
       sodipodi:rx="9.6922703"
       sodipodi:ry="9.6922703"
       d="m 70.143091,58.913933 c 0,5.352893 -4.339377,9.69227 -9.69227,9.69227 -5.352893,0 -9.69227,-4.339377 -9.69227,-9.69227 0,-5.352893 4.339377,-9.69227 9.69227,-9.69227 5.352893,0 9.69227,4.339377 9.69227,9.69227 z"
       transform="translate(164.34824,23.56926)" />
    <path
       sodipodi:type="arc"
       style="fill:#f5f5f5;fill-opacity:1;fill-rule:nonzero;stroke:#000000;stroke-width:1;stroke-linecap:square;stroke-linejoin:miter;stroke-miterlimit:2;stroke-opacity:1;stroke-dasharray:none;stroke-dashoffset:0"
       id="path10160"
       sodipodi:cx="60.450821"
       sodipodi:cy="58.913933"
       sodipodi:rx="9.6922703"
       sodipodi:ry="9.6922703"
       d="m 70.143091,58.913933 c 0,5.352893 -4.339377,9.69227 -9.69227,9.69227 -5.352893,0 -9.69227,-4.339377 -9.69227,-9.69227 0,-5.352893 4.339377,-9.69227 9.69227,-9.69227 5.352893,0 9.69227,4.339377 9.69227,9.69227 z"
       transform="translate(131.38909,23.56926)" />
    <path
       transform="translate(-57.35391,44.01373)"
       d="m 176.54946,81.34684 c 0,10.367682 -8.40466,18.77235 -18.77235,18.77235 -10.36768,0 -18.77234,-8.404668 -18.77234,-18.77235 0,-10.367682 8.40466,-18.772348 18.77234,-18.772348 10.36769,0 18.77235,8.404666 18.77235,18.772348 z"
       sodipodi:ry="18.772348"
       sodipodi:rx="18.772348"
       sodipodi:cy="81.34684"
       sodipodi:cx="157.77711"
       id="use22265"
       style="fill:url(#radialGradient4183);fill-opacity:1;fill-rule:nonzero;stroke:none"
       sodipodi:type="arc" />
    <use
       x="0"
       y="0"
       xlink:href="#use22265"
       id="use22267"
       transform="translate(95.41875,0)"
       width="362.5"
       height="687.5" />
    <use
       x="0"
       y="0"
       xlink:href="#use22267"
       id="use22269"
       transform="translate(-47.147,0)"
       width="362.5"
       height="687.5" />
    <use
       style="fill:#bd7333;fill-opacity:1;stroke:#ffe8dc;stroke-opacity:1"
       x="0"
       y="0"
       xlink:href="#use22269"
       id="use22271"
       transform="translate(96.54355,3e-6)"
       width="362.5"
       height="687.5" />
    <path
       sodipodi:type="arc"
       style="fill:#00cc03;fill-opacity:1;fill-rule:nonzero;stroke:#000000;stroke-width:1;stroke-linecap:square;stroke-linejoin:miter;stroke-miterlimit:2;stroke-opacity:1;stroke-dasharray:none;stroke-dashoffset:0"
       id="path17395"
       sodipodi:cx="157.77711"
       sodipodi:cy="81.34684"
       sodipodi:rx="18.772348"
       sodipodi:ry="18.772348"
       d="m 176.54946,81.34684 c 0,10.367682 -8.40466,18.77235 -18.77235,18.77235 -10.36768,0 -18.77234,-8.404668 -18.77234,-18.77235 0,-10.367682 8.40466,-18.772348 18.77234,-18.772348 10.36769,0 18.77235,8.404666 18.77235,18.772348 z"
       transform="translate(-57.35391,-39.71087)" />
    <path
       transform="translate(-9.082162,-39.71087)"
       d="m 176.54946,81.34684 c 0,10.367682 -8.40466,18.77235 -18.77235,18.77235 -10.36768,0 -18.77234,-8.404668 -18.77234,-18.77235 0,-10.367682 8.40466,-18.772348 18.77234,-18.772348 10.36769,0 18.77235,8.404666 18.77235,18.772348 z"
       sodipodi:ry="18.772348"
       sodipodi:rx="18.772348"
       sodipodi:cy="81.34684"
       sodipodi:cx="157.77711"
       id="path17397"
       style="fill:#c61d00;fill-opacity:1;fill-rule:nonzero;stroke:#000000;stroke-width:1;stroke-linecap:square;stroke-linejoin:miter;stroke-miterlimit:2;stroke-opacity:1;stroke-dasharray:none;stroke-dashoffset:0"
       sodipodi:type="arc" />
    <path
       transform="translate(38.064838,-39.71087)"
       d="m 176.54946,81.34684 c 0,10.367682 -8.40466,18.77235 -18.77235,18.77235 -10.36768,0 -18.77234,-8.404668 -18.77234,-18.77235 0,-10.367682 8.40466,-18.772348 18.77234,-18.772348 10.36769,0 18.77235,8.404666 18.77235,18.772348 z"
       sodipodi:ry="18.772348"
       sodipodi:rx="18.772348"
       sodipodi:cy="81.34684"
       sodipodi:cx="157.77711"
       id="path17399"
       style="fill:#4d48e9;fill-opacity:1;fill-rule:nonzero;stroke:#000000;stroke-width:1;stroke-linecap:square;stroke-linejoin:miter;stroke-miterlimit:2;stroke-opacity:1;stroke-dasharray:none;stroke-dashoffset:0"
       sodipodi:type="arc" />
    <path
       transform="translate(87.46144,-39.71087)"
       d="m 176.54946,81.34684 c 0,10.367682 -8.40466,18.77235 -18.77235,18.77235 -10.36768,0 -18.77234,-8.404668 -18.77234,-18.77235 0,-10.367682 8.40466,-18.772348 18.77234,-18.772348 10.36769,0 18.77235,8.404666 18.77235,18.772348 z"
       sodipodi:ry="18.772348"
       sodipodi:rx="18.772348"
       sodipodi:cy="81.34684"
       sodipodi:cx="157.77711"
       id="path17401"
       style="fill:#00cc03;fill-opacity:1;fill-rule:nonzero;stroke:#000000;stroke-width:1;stroke-linecap:square;stroke-linejoin:miter;stroke-miterlimit:2;stroke-opacity:1;stroke-dasharray:none;stroke-dashoffset:0"
       sodipodi:type="arc" />
    <rect
       style="fill:#763214;fill-opacity:0.784153;fill-rule:nonzero;stroke:none"
       id="rect18312"
       width="217.22289"
       height="24.43087"
       x="60.959877"
       y="42.467491"
       rx="10"
       ry="6.1077175" />
  </g>
</svg>
