<?xml version="1.0" encoding="utf8"?>
<!DOCTYPE svg PUBLIC "-//W3C//DTD SVG 1.1//EN" "http://www.w3.org/Graphics/SVG/1.1/DTD/svg11.dtd">
<svg enable-background="new 0 0 333.33 287.889" viewBox="0 0 333.33 287.889" xml:space="preserve" xmlns="http://www.w3.org/2000/svg"><defs><pattern height="69" patternUnits="userSpaceOnUse" viewBox="2.125 -70.896 69 69" width="69" x="-229.332" y="450.165">
	
		<path d="m71.125-1.896h-69v-69h69z" fill="none"></path>
		<path d="m71.125-1.896h-69v-69h69z" fill="#f7bc60"></path>
		
			<path d="m61.772-71.653c.018.072.007.127-.026.19-.053.101-.112.062-.165.128-.05.062-.099.276-.079.362-.169.058-.01.227-.015.35-.002.05-.041.105-.045.161-.01.119.017.266.068.37 .097.198.268.413.435.544 .19.148.365.572.608.631 .177.042.384-.104.543-.143 .18-.043.397.01.571-.053 .222-.079.127-.337.288-.45 .104-.074.287-.01.406-.051 .2-.069.339-.263.376-.46 .016-.082.01-.145.039-.221 .039-.103.111-.16.09-.293-.01-.062-.052-.12-.064-.187-.022-.114.002-.224 0-.337-.003-.2.017-.379-.078-.55-.38-.688-1.236-.929-1.975-.789-.18.034-.287.126-.442.207-.17.088-.139.166-.318.224-.081.026-.216.124-.215.224 .001.115.005.051.012.169-.021.011-.021-.005-.03-.025" fill="#fff"></path>
			<path d="m54.105-71.653c.018.072.007.127-.026.19-.053.101-.112.062-.165.128-.05.062-.099.276-.079.362-.169.058-.01.227-.015.35-.002.05-.041.105-.045.161-.01.119.017.266.068.37 .097.198.268.413.435.544 .19.148.365.572.608.631 .177.042.384-.104.543-.143 .18-.043.397.01.571-.053 .222-.079.127-.337.288-.45 .104-.074.287-.01.406-.051 .2-.069.339-.263.376-.46 .016-.082.01-.145.039-.221 .039-.103.111-.16.09-.293-.01-.062-.052-.12-.064-.187-.022-.114.002-.224 0-.337-.003-.2.017-.379-.078-.55-.38-.688-1.236-.929-1.975-.789-.18.034-.287.126-.442.207-.17.088-.139.166-.318.224-.081.026-.216.124-.215.224 .001.115.005.051.012.169-.021.011-.021-.005-.03-.025" fill="#fff"></path>
			<path d="m46.439-71.653c.018.072.007.127-.026.19-.053.101-.112.062-.165.128-.05.062-.099.276-.079.362-.169.058-.01.227-.015.35-.002.05-.041.105-.045.161-.01.119.017.266.068.37 .097.198.268.413.435.544 .19.148.365.572.608.631 .177.042.384-.104.543-.143 .18-.043.397.01.571-.053 .222-.079.127-.337.288-.45 .104-.074.287-.01.406-.051 .2-.069.339-.263.376-.46 .016-.082.01-.145.039-.221 .039-.103.111-.16.09-.293-.01-.062-.052-.12-.064-.187-.022-.114.002-.224 0-.337-.003-.2.017-.379-.078-.55-.38-.688-1.236-.929-1.975-.789-.18.034-.287.126-.442.207-.17.088-.139.166-.318.224-.081.026-.216.124-.215.224 .001.115.005.051.012.169-.021.011-.021-.005-.03-.025" fill="#fff"></path>
			<path d="m38.772-71.653c.018.072.007.127-.026.19-.053.101-.112.062-.165.128-.05.062-.099.276-.079.362-.169.058-.01.227-.015.35-.002.05-.041.105-.045.161-.01.119.017.266.068.37 .097.198.268.413.435.544 .19.148.365.572.608.631 .177.042.384-.104.543-.143 .18-.043.397.01.571-.053 .222-.079.127-.337.288-.45 .104-.074.287-.01.406-.051 .2-.069.339-.263.376-.46 .016-.082.01-.145.039-.221 .039-.103.111-.16.09-.293-.01-.062-.052-.12-.064-.187-.022-.114.002-.224 0-.337-.003-.2.017-.379-.078-.55-.38-.688-1.236-.929-1.975-.789-.18.034-.287.126-.442.207-.17.088-.139.166-.318.224-.081.026-.216.124-.215.224 .001.115.005.051.012.169-.021.011-.021-.005-.03-.025" fill="#fff"></path>
			<path d="m31.105-71.653c.018.072.007.127-.026.19-.053.101-.112.062-.165.128-.05.062-.099.276-.079.362-.169.058-.01.227-.015.35-.002.05-.041.105-.045.161-.01.119.017.266.068.37 .097.198.268.413.435.544 .19.148.365.572.608.631 .177.042.384-.104.543-.143 .18-.043.397.01.571-.053 .222-.079.127-.337.288-.45 .104-.074.287-.01.406-.051 .2-.069.339-.263.376-.46 .016-.082.01-.145.039-.221 .039-.103.111-.16.09-.293-.01-.062-.052-.12-.064-.187-.022-.114.002-.224 0-.337-.003-.2.017-.379-.078-.55-.38-.688-1.236-.929-1.975-.789-.18.034-.287.126-.442.207-.17.088-.139.166-.318.224-.081.026-.216.124-.215.224 .001.115.005.051.012.169-.021.011-.021-.005-.03-.025" fill="#fff"></path>
			<path d="m23.439-71.653c.018.072.007.127-.026.19-.053.101-.112.062-.165.128-.05.062-.099.276-.079.362-.169.058-.01.227-.015.35-.002.05-.041.105-.045.161-.01.119.017.266.068.37 .097.198.268.413.435.544 .19.148.365.572.608.631 .177.042.384-.104.543-.143 .18-.043.397.01.571-.053 .222-.079.127-.337.288-.45 .104-.074.287-.01.406-.051 .2-.069.339-.263.376-.46 .016-.082.01-.145.039-.221 .039-.103.111-.16.09-.293-.01-.062-.052-.12-.064-.187-.022-.114.002-.224 0-.337-.003-.2.017-.379-.078-.55-.38-.688-1.236-.929-1.975-.789-.18.034-.287.126-.442.207-.17.088-.139.166-.318.224-.081.026-.216.124-.215.224 .001.115.005.051.012.169-.021.011-.021-.005-.03-.025" fill="#fff"></path>
			<path d="m15.772-71.653c.018.072.007.127-.026.19-.053.101-.112.062-.165.128-.05.062-.099.276-.079.362-.169.058-.01.227-.015.35-.002.05-.041.105-.045.161-.01.119.017.266.068.37 .097.198.268.413.435.544 .19.148.365.572.608.631 .177.042.384-.104.543-.143 .18-.043.397.01.571-.053 .222-.079.127-.337.288-.45 .104-.074.287-.01.406-.051 .2-.069.339-.263.376-.46 .016-.082.01-.145.039-.221 .039-.103.111-.16.09-.293-.01-.062-.052-.12-.064-.187-.022-.114.002-.224 0-.337-.003-.2.017-.379-.078-.55-.38-.688-1.236-.929-1.975-.789-.18.034-.287.126-.442.207-.17.088-.139.166-.318.224-.081.026-.216.124-.215.224 .001.115.005.051.012.169-.021.011-.021-.005-.03-.025" fill="#fff"></path>
			<path d="m8.105-71.653c.018.072.007.127-.026.19-.053.101-.112.062-.165.128-.05.062-.099.276-.079.362-.169.058-.01.227-.015.35-.002.05-.041.105-.045.161-.01.119.017.266.068.37 .097.198.268.413.435.544 .19.148.365.572.608.631 .177.042.384-.104.543-.143 .18-.043.397.01.571-.053 .222-.079.127-.337.288-.45 .104-.074.287-.01.406-.051 .2-.069.339-.263.376-.46 .016-.082.01-.145.039-.221 .039-.103.111-.16.09-.293-.01-.062-.052-.12-.064-.187-.022-.114.002-.224 0-.337-.003-.2.017-.379-.078-.55-.38-.688-1.236-.929-1.975-.789-.18.034-.287.126-.442.207-.17.088-.139.166-.318.224-.081.026-.216.124-.215.224 .001.115.005.051.012.169-.021.011-.021-.005-.03-.025" fill="#fff"></path>
			<path d="m.439-71.653c.018.072.008.127-.026.19-.052.101-.113.063-.165.128-.051.062-.099.276-.079.362-.169.058-.01.227-.015.35-.002.05-.041.105-.045.161-.01.119.017.266.068.37 .097.198.268.413.435.544 .19.148.365.572.608.631 .177.042.384-.104.543-.143 .18-.043.397.01.571-.053 .222-.079.127-.337.288-.45 .104-.074.287-.01.406-.051 .2-.07.339-.263.376-.46 .016-.082.01-.145.039-.221 .038-.103.111-.16.09-.293-.01-.062-.051-.12-.064-.187-.021-.114.002-.224 0-.337-.003-.2.017-.379-.078-.55-.38-.688-1.236-.929-1.975-.789-.18.034-.287.126-.442.207-.17.088-.139.166-.318.224-.081.026-.215.124-.215.224 .002.115.005.051.012.169-.021.011-.021-.005-.03-.025" fill="#fff"></path>
		
		
			<path d="m69.439-71.653c.018.072.008.127-.026.19-.052.101-.113.062-.165.128-.051.062-.099.276-.079.362-.169.058-.01.227-.015.35-.002.05-.041.105-.045.161-.01.119.017.266.068.37 .097.198.268.413.435.544 .19.148.365.572.608.631 .177.042.384-.104.543-.143 .18-.043.397.01.571-.053 .222-.079.127-.337.288-.45 .104-.074.287-.01.406-.051 .2-.07.339-.263.376-.46 .016-.082.01-.145.039-.221 .038-.103.111-.16.09-.293-.01-.062-.051-.12-.064-.187-.021-.114.002-.224 0-.337-.003-.2.017-.379-.078-.55-.38-.688-1.236-.929-1.975-.789-.18.034-.287.126-.442.207-.17.088-.139.166-.318.224-.081.026-.215.124-.215.224 .002.115.005.051.012.169-.021.011-.021-.005-.03-.025" fill="#fff"></path>
		
		<path d="m.495-71.653c.018.072.008.127-.026.19-.052.101-.113.062-.165.128-.051.062-.099.276-.079.362-.169.058-.01.227-.015.35-.002.05-.041.105-.045.161-.01.119.017.266.068.37 .097.198.268.413.435.544 .19.148.365.572.608.631 .177.042.384-.104.543-.143 .18-.043.397.01.571-.053 .222-.079.127-.337.288-.45 .104-.074.287-.01.406-.051 .2-.07.339-.263.376-.46 .016-.082.01-.145.039-.221 .038-.103.111-.16.09-.293-.01-.062-.051-.12-.064-.187-.021-.114.002-.224 0-.337-.003-.2.017-.379-.078-.55-.38-.688-1.236-.929-1.975-.789-.18.034-.287.126-.442.207-.17.088-.139.166-.318.224-.081.026-.215.124-.215.224 .003.116.006.052.013.17-.021.011-.021-.005-.03-.025" fill="#fff"></path>
		
			
				<path d="m69.439-64.001c.018.072.007.127-.026.19-.053.101-.112.062-.165.128-.05.062-.099.276-.079.362-.169.058-.01.227-.015.35-.002.05-.041.105-.045.161-.01.119.017.266.068.37 .097.198.268.413.435.544 .19.148.365.572.608.631 .177.042.384-.104.543-.143 .18-.043.397.01.571-.053 .222-.079.127-.337.288-.45 .104-.074.287-.01.406-.051 .2-.069.339-.263.376-.46 .016-.082.01-.145.039-.221 .039-.103.111-.16.09-.293-.01-.062-.052-.12-.064-.187-.022-.114.002-.224 0-.337-.003-.2.017-.379-.078-.55-.38-.688-1.236-.929-1.975-.789-.18.034-.287.126-.442.207-.17.088-.139.166-.318.224-.081.026-.216.124-.215.224 .001.115.005.051.012.169-.021.011-.021-.005-.03-.025" fill="#fff"></path>
				<path d="m61.778-64.001c.018.072.007.127-.026.19-.053.101-.112.062-.165.128-.05.062-.099.276-.079.362-.169.058-.009.227-.015.35-.002.05-.041.105-.045.161-.01.119.017.266.068.37 .097.198.268.413.435.544 .19.148.365.572.608.631 .177.042.384-.104.543-.143 .18-.043.397.01.571-.053 .222-.079.127-.337.288-.45 .104-.074.287-.01.406-.051 .2-.069.339-.263.376-.46 .016-.082.01-.145.039-.221 .039-.103.111-.16.09-.293-.01-.062-.052-.12-.064-.187-.022-.114.002-.224 0-.337-.003-.2.017-.379-.078-.55-.38-.688-1.236-.929-1.975-.789-.18.034-.287.126-.442.207-.17.088-.139.166-.318.224-.081.026-.216.124-.215.224 .001.115.005.051.012.169-.021.011-.021-.005-.03-.025" fill="#fff"></path>
				<path d="m54.118-64.001c.018.072.007.127-.026.19-.053.101-.112.062-.165.128-.05.062-.099.276-.079.362-.169.058-.009.227-.015.35-.002.05-.041.105-.045.161-.01.119.017.266.068.37 .097.198.268.413.435.544 .19.148.365.572.608.631 .177.042.384-.104.543-.143 .18-.043.397.01.571-.053 .222-.079.127-.337.288-.45 .104-.074.287-.01.406-.051 .2-.069.339-.263.376-.46 .016-.082.01-.145.039-.221 .039-.103.111-.16.09-.293-.01-.062-.052-.12-.064-.187-.022-.114.002-.224 0-.337-.003-.2.017-.379-.078-.55-.38-.688-1.236-.929-1.975-.789-.18.034-.287.126-.442.207-.17.088-.139.166-.318.224-.081.026-.216.124-.215.224 .001.115.005.051.012.169-.021.011-.021-.005-.03-.025" fill="#fff"></path>
				<path d="m46.458-64.001c.018.072.007.127-.026.19-.053.101-.112.062-.165.128-.05.062-.099.276-.079.362-.169.058-.009.227-.015.35-.002.05-.041.105-.045.161-.01.119.017.266.068.37 .097.198.268.413.435.544 .19.148.365.572.608.631 .177.042.384-.104.543-.143 .18-.043.397.01.571-.053 .222-.079.127-.337.288-.45 .104-.074.287-.01.406-.051 .2-.069.339-.263.376-.46 .016-.082.01-.145.039-.221 .039-.103.111-.16.09-.293-.01-.062-.052-.12-.064-.187-.022-.114.002-.224 0-.337-.003-.2.017-.379-.078-.55-.38-.688-1.236-.929-1.975-.789-.18.034-.287.126-.442.207-.17.088-.139.166-.318.224-.081.026-.216.124-.215.224 .001.115.005.051.012.169-.021.011-.021-.005-.03-.025" fill="#fff"></path>
				<path d="m38.797-64.001c.018.072.007.127-.026.19-.053.101-.112.062-.165.128-.05.062-.099.276-.079.362-.169.058-.009.227-.015.35-.002.05-.041.105-.045.161-.01.119.017.266.068.37 .097.198.268.413.435.544 .19.148.365.572.608.631 .177.042.384-.104.543-.143 .18-.043.397.01.571-.053 .222-.079.127-.337.288-.45 .104-.074.287-.01.406-.051 .2-.069.339-.263.376-.46 .016-.082.01-.145.039-.221 .039-.103.111-.16.09-.293-.01-.062-.052-.12-.064-.187-.022-.114.002-.224 0-.337-.003-.2.017-.379-.078-.55-.38-.688-1.236-.929-1.975-.789-.18.034-.287.126-.442.207-.17.088-.139.166-.318.224-.081.026-.216.124-.215.224 .001.115.005.051.012.169-.021.011-.021-.005-.03-.025" fill="#fff"></path>
				<path d="m31.137-64.001c.018.072.007.127-.026.19-.053.101-.112.062-.165.128-.05.062-.099.276-.079.362-.169.058-.009.227-.015.35-.002.05-.041.105-.045.161-.01.119.017.266.068.37 .097.198.268.413.435.544 .19.148.365.572.608.631 .177.042.384-.104.543-.143 .18-.043.397.01.571-.053 .222-.079.127-.337.288-.45 .104-.074.287-.01.406-.051 .2-.069.339-.263.376-.46 .016-.082.01-.145.039-.221 .039-.103.111-.16.09-.293-.01-.062-.052-.12-.064-.187-.022-.114.002-.224 0-.337-.003-.2.017-.379-.078-.55-.38-.688-1.236-.929-1.975-.789-.18.034-.287.126-.442.207-.17.088-.139.166-.318.224-.081.026-.216.124-.215.224 .001.115.005.051.012.169-.021.011-.021-.005-.03-.025" fill="#fff"></path>
				<path d="m23.477-64.001c.018.072.007.127-.026.19-.053.101-.112.062-.165.128-.05.062-.099.276-.079.362-.169.058-.009.227-.015.35-.002.05-.041.105-.045.161-.01.119.017.266.068.37 .097.198.268.413.435.544 .19.148.365.572.608.631 .177.042.384-.104.543-.143 .18-.043.397.01.571-.053 .222-.079.127-.337.288-.45 .104-.074.287-.01.406-.051 .2-.069.339-.263.376-.46 .016-.082.01-.145.039-.221 .039-.103.111-.16.09-.293-.01-.062-.052-.12-.064-.187-.022-.114.002-.224 0-.337-.003-.2.017-.379-.078-.55-.38-.688-1.236-.929-1.975-.789-.18.034-.287.126-.442.207-.17.088-.139.166-.318.224-.081.026-.216.124-.215.224 .001.115.005.051.012.169-.021.011-.021-.005-.03-.025" fill="#fff"></path>
				<path d="m15.816-64.001c.018.072.007.127-.026.19-.053.101-.112.062-.165.128-.05.062-.099.276-.079.362-.169.058-.009.227-.015.35-.002.05-.041.105-.045.161-.01.119.017.266.068.37 .097.198.268.413.435.544 .19.148.365.572.608.631 .177.042.384-.104.543-.143 .18-.043.397.01.571-.053 .222-.079.127-.337.288-.45 .104-.074.287-.01.406-.051 .2-.069.339-.263.376-.46 .016-.082.01-.145.039-.221 .039-.103.111-.16.09-.293-.01-.062-.052-.12-.064-.187-.022-.114.002-.224 0-.337-.003-.2.017-.379-.078-.55-.38-.688-1.236-.929-1.975-.789-.18.034-.287.126-.442.207-.17.088-.139.166-.318.224-.081.026-.216.124-.215.224 .001.115.005.051.012.169-.021.011-.021-.005-.03-.025" fill="#fff"></path>
				<path d="m8.156-64.001c.018.072.007.127-.026.19-.053.101-.112.062-.165.128-.05.062-.099.276-.079.362-.169.058-.009.227-.015.35-.002.05-.041.105-.045.161-.01.119.017.266.068.37 .097.198.268.413.435.544 .19.148.365.572.608.631 .177.042.384-.104.543-.143 .18-.043.397.01.571-.053 .222-.079.127-.337.288-.45 .104-.074.287-.01.406-.051 .2-.069.339-.263.376-.46 .016-.082.01-.145.039-.221 .039-.103.111-.16.09-.293-.01-.062-.052-.12-.064-.187-.022-.114.002-.224 0-.337-.003-.2.017-.379-.078-.55-.38-.688-1.236-.929-1.975-.789-.18.034-.287.126-.442.207-.17.088-.139.166-.318.224-.081.026-.216.124-.215.224 .001.115.005.051.012.169-.021.011-.021-.005-.03-.025" fill="#fff"></path>
				<path d="m.495-64.001c.018.072.007.127-.026.19-.053.101-.112.062-.165.128-.05.062-.099.276-.079.362-.169.058-.01.227-.015.35-.002.05-.041.105-.045.161-.01.119.017.266.068.37 .097.198.268.413.435.544 .19.148.365.572.608.631 .177.042.384-.104.543-.143 .181-.042.398.011.572-.052 .222-.079.127-.337.288-.45 .104-.074.287-.01.406-.051 .2-.069.339-.263.376-.46 .016-.082.01-.145.039-.221 .039-.103.111-.16.09-.293-.01-.062-.052-.12-.064-.187-.022-.114.002-.224 0-.337-.003-.2.017-.379-.078-.55-.38-.688-1.236-.929-1.975-.789-.18.034-.287.126-.442.207-.17.088-.139.166-.318.224-.081.026-.216.124-.215.224 .001.115.005.051.012.169-.021.011-.021-.005-.03-.025" fill="#fff"></path>
			
			
				<path d="m69.439-56.348c.018.072.007.127-.026.19-.053.101-.112.062-.165.128-.05.062-.099.276-.079.362-.169.058-.01.227-.015.35-.002.05-.041.105-.045.161-.01.119.017.266.068.37 .097.198.268.413.435.544 .19.148.365.572.608.631 .177.042.384-.104.543-.143 .18-.043.397.01.571-.053 .222-.079.127-.337.288-.45 .104-.074.287-.01.406-.051 .2-.069.339-.263.376-.46 .016-.082.01-.145.039-.221 .039-.103.111-.16.09-.293-.01-.062-.052-.12-.064-.187-.022-.114.002-.224 0-.337-.003-.2.017-.379-.078-.55-.38-.688-1.236-.929-1.975-.789-.18.034-.287.126-.442.207-.17.088-.139.166-.318.224-.081.026-.216.124-.215.224 .001.115.005.051.012.169-.021.011-.021-.005-.03-.025" fill="#fff"></path>
				<path d="m61.778-56.348c.018.072.007.127-.026.19-.053.101-.112.062-.165.128-.05.062-.099.276-.079.362-.169.058-.009.227-.015.35-.002.05-.041.105-.045.161-.01.119.017.266.068.37 .097.198.268.413.435.544 .19.148.365.572.608.631 .177.042.384-.104.543-.143 .18-.043.397.01.571-.053 .222-.079.127-.337.288-.45 .104-.074.287-.01.406-.051 .2-.069.339-.263.376-.46 .016-.082.01-.145.039-.221 .039-.103.111-.16.09-.293-.01-.062-.052-.12-.064-.187-.022-.114.002-.224 0-.337-.003-.2.017-.379-.078-.55-.38-.688-1.236-.929-1.975-.789-.18.034-.287.126-.442.207-.17.088-.139.166-.318.224-.081.026-.216.124-.215.224 .001.115.005.051.012.169-.021.011-.021-.005-.03-.025" fill="#fff"></path>
				<path d="m54.118-56.348c.018.072.007.127-.026.19-.053.101-.112.062-.165.128-.05.062-.099.276-.079.362-.169.058-.009.227-.015.35-.002.05-.041.105-.045.161-.01.119.017.266.068.37 .097.198.268.413.435.544 .19.148.365.572.608.631 .177.042.384-.104.543-.143 .18-.043.397.01.571-.053 .222-.079.127-.337.288-.45 .104-.074.287-.01.406-.051 .2-.069.339-.263.376-.46 .016-.082.01-.145.039-.221 .039-.103.111-.16.09-.293-.01-.062-.052-.12-.064-.187-.022-.114.002-.224 0-.337-.003-.2.017-.379-.078-.55-.38-.688-1.236-.929-1.975-.789-.18.034-.287.126-.442.207-.17.088-.139.166-.318.224-.081.026-.216.124-.215.224 .001.115.005.051.012.169-.021.011-.021-.005-.03-.025" fill="#fff"></path>
				<path d="m46.458-56.348c.018.072.007.127-.026.19-.053.101-.112.062-.165.128-.05.062-.099.276-.079.362-.169.058-.009.227-.015.35-.002.05-.041.105-.045.161-.01.119.017.266.068.37 .097.198.268.413.435.544 .19.148.365.572.608.631 .177.042.384-.104.543-.143 .18-.043.397.01.571-.053 .222-.079.127-.337.288-.45 .104-.074.287-.01.406-.051 .2-.069.339-.263.376-.46 .016-.082.01-.145.039-.221 .039-.103.111-.16.09-.293-.01-.062-.052-.12-.064-.187-.022-.114.002-.224 0-.337-.003-.2.017-.379-.078-.55-.38-.688-1.236-.929-1.975-.789-.18.034-.287.126-.442.207-.17.088-.139.166-.318.224-.081.026-.216.124-.215.224 .001.115.005.051.012.169-.021.011-.021-.005-.03-.025" fill="#fff"></path>
				<path d="m38.797-56.348c.018.072.007.127-.026.19-.053.101-.112.062-.165.128-.05.062-.099.276-.079.362-.169.058-.009.227-.015.35-.002.05-.041.105-.045.161-.01.119.017.266.068.37 .097.198.268.413.435.544 .19.148.365.572.608.631 .177.042.384-.104.543-.143 .18-.043.397.01.571-.053 .222-.079.127-.337.288-.45 .104-.074.287-.01.406-.051 .2-.069.339-.263.376-.46 .016-.082.01-.145.039-.221 .039-.103.111-.16.09-.293-.01-.062-.052-.12-.064-.187-.022-.114.002-.224 0-.337-.003-.2.017-.379-.078-.55-.38-.688-1.236-.929-1.975-.789-.18.034-.287.126-.442.207-.17.088-.139.166-.318.224-.081.026-.216.124-.215.224 .001.115.005.051.012.169-.021.011-.021-.005-.03-.025" fill="#fff"></path>
				<path d="m31.137-56.348c.018.072.007.127-.026.19-.053.101-.112.062-.165.128-.05.062-.099.276-.079.362-.169.058-.009.227-.015.35-.002.05-.041.105-.045.161-.01.119.017.266.068.37 .097.198.268.413.435.544 .19.148.365.572.608.631 .177.042.384-.104.543-.143 .18-.043.397.01.571-.053 .222-.079.127-.337.288-.45 .104-.074.287-.01.406-.051 .2-.069.339-.263.376-.46 .016-.082.01-.145.039-.221 .039-.103.111-.16.09-.293-.01-.062-.052-.12-.064-.187-.022-.114.002-.224 0-.337-.003-.2.017-.379-.078-.55-.38-.688-1.236-.929-1.975-.789-.18.034-.287.126-.442.207-.17.088-.139.166-.318.224-.081.026-.216.124-.215.224 .001.115.005.051.012.169-.021.011-.021-.005-.03-.025" fill="#fff"></path>
				<path d="m23.477-56.348c.018.072.007.127-.026.19-.053.101-.112.062-.165.128-.05.062-.099.276-.079.362-.169.058-.009.227-.015.35-.002.05-.041.105-.045.161-.01.119.017.266.068.37 .097.198.268.413.435.544 .19.148.365.572.608.631 .177.042.384-.104.543-.143 .18-.043.397.01.571-.053 .222-.079.127-.337.288-.45 .104-.074.287-.01.406-.051 .2-.069.339-.263.376-.46 .016-.082.01-.145.039-.221 .039-.103.111-.16.09-.293-.01-.062-.052-.12-.064-.187-.022-.114.002-.224 0-.337-.003-.2.017-.379-.078-.55-.38-.688-1.236-.929-1.975-.789-.18.034-.287.126-.442.207-.17.088-.139.166-.318.224-.081.026-.216.124-.215.224 .001.115.005.051.012.169-.021.011-.021-.005-.03-.025" fill="#fff"></path>
				<path d="m15.816-56.348c.018.072.007.127-.026.19-.053.101-.112.062-.165.128-.05.062-.099.276-.079.362-.169.058-.009.227-.015.35-.002.05-.041.105-.045.161-.01.119.017.266.068.37 .097.198.268.413.435.544 .19.148.365.572.608.631 .177.042.384-.104.543-.143 .18-.043.397.01.571-.053 .222-.079.127-.337.288-.45 .104-.074.287-.01.406-.051 .2-.069.339-.263.376-.46 .016-.082.01-.145.039-.221 .039-.103.111-.16.09-.293-.01-.062-.052-.12-.064-.187-.022-.114.002-.224 0-.337-.003-.2.017-.379-.078-.55-.38-.688-1.236-.929-1.975-.789-.18.034-.287.126-.442.207-.17.088-.139.166-.318.224-.081.026-.216.124-.215.224 .001.115.005.051.012.169-.021.011-.021-.005-.03-.025" fill="#fff"></path>
				<path d="m8.156-56.348c.018.072.007.127-.026.19-.053.101-.112.062-.165.128-.05.062-.099.276-.079.362-.169.058-.009.227-.015.35-.002.05-.041.105-.045.161-.01.119.017.266.068.37 .097.198.268.413.435.544 .19.148.365.572.608.631 .177.042.384-.104.543-.143 .18-.043.397.01.571-.053 .222-.079.127-.337.288-.45 .104-.074.287-.01.406-.051 .2-.069.339-.263.376-.46 .016-.082.01-.145.039-.221 .039-.103.111-.16.09-.293-.01-.062-.052-.12-.064-.187-.022-.114.002-.224 0-.337-.003-.2.017-.379-.078-.55-.38-.688-1.236-.929-1.975-.789-.18.034-.287.126-.442.207-.17.088-.139.166-.318.224-.081.026-.216.124-.215.224 .001.115.005.051.012.169-.021.011-.021-.005-.03-.025" fill="#fff"></path>
				<path d="m.495-56.348c.018.072.007.127-.026.19-.053.101-.112.062-.165.128-.05.062-.099.276-.079.362-.169.058-.01.227-.015.35-.002.05-.041.105-.045.161-.01.119.017.266.068.37 .097.198.268.413.435.544 .19.148.365.572.608.631 .177.042.384-.104.543-.143 .18-.043.397.01.571-.053 .222-.079.127-.337.288-.45 .104-.074.287-.01.406-.051 .2-.069.339-.263.376-.46 .016-.082.01-.145.039-.221 .039-.103.111-.16.09-.293-.01-.062-.052-.12-.064-.187-.022-.114.002-.224 0-.337-.003-.2.017-.379-.078-.55-.38-.688-1.236-.929-1.975-.789-.18.034-.287.126-.442.207-.17.088-.139.166-.318.224-.081.026-.216.124-.215.224 .003.117.006.053.013.171-.021.011-.021-.005-.03-.025" fill="#fff"></path>
			
			
				<path d="m69.439-48.695c.018.072.007.127-.026.19-.053.101-.112.062-.165.128-.05.062-.099.276-.079.362-.169.058-.01.227-.015.35-.002.05-.041.105-.045.161-.01.119.017.266.068.37 .097.198.268.413.435.544 .19.148.365.572.608.631 .177.042.384-.104.543-.143 .18-.043.397.01.571-.053 .222-.079.127-.337.288-.45 .104-.074.287-.01.406-.051 .2-.069.339-.263.376-.46 .016-.082.01-.145.039-.221 .039-.103.111-.16.09-.293-.01-.062-.052-.12-.064-.187-.022-.114.002-.224 0-.337-.003-.2.017-.379-.078-.55-.38-.688-1.236-.929-1.975-.789-.18.034-.287.126-.442.207-.17.088-.139.166-.318.224-.081.026-.216.124-.215.224 .001.115.005.051.012.169-.021.011-.021-.005-.03-.025" fill="#fff"></path>
				<path d="m61.778-48.695c.018.072.007.127-.026.19-.053.101-.112.062-.165.128-.05.062-.099.276-.079.362-.169.058-.009.227-.015.35-.002.05-.041.105-.045.161-.01.119.017.266.068.37 .097.198.268.413.435.544 .19.148.365.572.608.631 .177.042.384-.104.543-.143 .18-.043.397.01.571-.053 .222-.079.127-.337.288-.45 .104-.074.287-.01.406-.051 .2-.069.339-.263.376-.46 .016-.082.01-.145.039-.221 .039-.103.111-.16.09-.293-.01-.062-.052-.12-.064-.187-.022-.114.002-.224 0-.337-.003-.2.017-.379-.078-.55-.38-.688-1.236-.929-1.975-.789-.18.034-.287.126-.442.207-.17.088-.139.166-.318.224-.081.026-.216.124-.215.224 .001.115.005.051.012.169-.021.011-.021-.005-.03-.025" fill="#fff"></path>
				<path d="m54.118-48.695c.018.072.007.127-.026.19-.053.101-.112.062-.165.128-.05.062-.099.276-.079.362-.169.058-.009.227-.015.35-.002.05-.041.105-.045.161-.01.119.017.266.068.37 .097.198.268.413.435.544 .19.148.365.572.608.631 .177.042.384-.104.543-.143 .18-.043.397.01.571-.053 .222-.079.127-.337.288-.45 .104-.074.287-.01.406-.051 .2-.069.339-.263.376-.46 .016-.082.01-.145.039-.221 .039-.103.111-.16.09-.293-.01-.062-.052-.12-.064-.187-.022-.114.002-.224 0-.337-.003-.2.017-.379-.078-.55-.38-.688-1.236-.929-1.975-.789-.18.034-.287.126-.442.207-.17.088-.139.166-.318.224-.081.026-.216.124-.215.224 .001.115.005.051.012.169-.021.011-.021-.005-.03-.025" fill="#fff"></path>
				<path d="m46.458-48.695c.018.072.007.127-.026.19-.053.101-.112.062-.165.128-.05.062-.099.276-.079.362-.169.058-.009.227-.015.35-.002.05-.041.105-.045.161-.01.119.017.266.068.37 .097.198.268.413.435.544 .19.148.365.572.608.631 .177.042.384-.104.543-.143 .18-.043.397.01.571-.053 .222-.079.127-.337.288-.45 .104-.074.287-.01.406-.051 .2-.069.339-.263.376-.46 .016-.082.01-.145.039-.221 .039-.103.111-.16.09-.293-.01-.062-.052-.12-.064-.187-.022-.114.002-.224 0-.337-.003-.2.017-.379-.078-.55-.38-.688-1.236-.929-1.975-.789-.18.034-.287.126-.442.207-.17.088-.139.166-.318.224-.081.026-.216.124-.215.224 .001.115.005.051.012.169-.021.011-.021-.005-.03-.025" fill="#fff"></path>
				<path d="m38.797-48.695c.018.072.007.127-.026.19-.053.101-.112.062-.165.128-.05.062-.099.276-.079.362-.169.058-.009.227-.015.35-.002.05-.041.105-.045.161-.01.119.017.266.068.37 .097.198.268.413.435.544 .19.148.365.572.608.631 .177.042.384-.104.543-.143 .18-.043.397.01.571-.053 .222-.079.127-.337.288-.45 .104-.074.287-.01.406-.051 .2-.069.339-.263.376-.46 .016-.082.01-.145.039-.221 .039-.103.111-.16.09-.293-.01-.062-.052-.12-.064-.187-.022-.114.002-.224 0-.337-.003-.2.017-.379-.078-.55-.38-.688-1.236-.929-1.975-.789-.18.034-.287.126-.442.207-.17.088-.139.166-.318.224-.081.026-.216.124-.215.224 .001.115.005.051.012.169-.021.011-.021-.005-.03-.025" fill="#fff"></path>
				<path d="m31.137-48.695c.018.072.007.127-.026.19-.053.101-.112.062-.165.128-.05.062-.099.276-.079.362-.169.058-.009.227-.015.35-.002.05-.041.105-.045.161-.01.119.017.266.068.37 .097.198.268.413.435.544 .19.148.365.572.608.631 .177.042.384-.104.543-.143 .18-.043.397.01.571-.053 .222-.079.127-.337.288-.45 .104-.074.287-.01.406-.051 .2-.069.339-.263.376-.46 .016-.082.01-.145.039-.221 .039-.103.111-.16.09-.293-.01-.062-.052-.12-.064-.187-.022-.114.002-.224 0-.337-.003-.2.017-.379-.078-.55-.38-.688-1.236-.929-1.975-.789-.18.034-.287.126-.442.207-.17.088-.139.166-.318.224-.081.026-.216.124-.215.224 .001.115.005.051.012.169-.021.011-.021-.005-.03-.025" fill="#fff"></path>
				<path d="m23.477-48.695c.018.072.007.127-.026.19-.053.101-.112.062-.165.128-.05.062-.099.276-.079.362-.169.058-.009.227-.015.35-.002.05-.041.105-.045.161-.01.119.017.266.068.37 .097.198.268.413.435.544 .19.148.365.572.608.631 .177.042.384-.104.543-.143 .18-.043.397.01.571-.053 .222-.079.127-.337.288-.45 .104-.074.287-.01.406-.051 .2-.069.339-.263.376-.46 .016-.082.01-.145.039-.221 .039-.103.111-.16.09-.293-.01-.062-.052-.12-.064-.187-.022-.114.002-.224 0-.337-.003-.2.017-.379-.078-.55-.38-.688-1.236-.929-1.975-.789-.18.034-.287.126-.442.207-.17.088-.139.166-.318.224-.081.026-.216.124-.215.224 .001.115.005.051.012.169-.021.011-.021-.005-.03-.025" fill="#fff"></path>
				<path d="m15.816-48.695c.018.072.007.127-.026.19-.053.101-.112.062-.165.128-.05.062-.099.276-.079.362-.169.058-.009.227-.015.35-.002.05-.041.105-.045.161-.01.119.017.266.068.37 .097.198.268.413.435.544 .19.148.365.572.608.631 .177.042.384-.104.543-.143 .18-.043.397.01.571-.053 .222-.079.127-.337.288-.45 .104-.074.287-.01.406-.051 .2-.069.339-.263.376-.46 .016-.082.01-.145.039-.221 .039-.103.111-.16.09-.293-.01-.062-.052-.12-.064-.187-.022-.114.002-.224 0-.337-.003-.2.017-.379-.078-.55-.38-.688-1.236-.929-1.975-.789-.18.034-.287.126-.442.207-.17.088-.139.166-.318.224-.081.026-.216.124-.215.224 .001.115.005.051.012.169-.021.011-.021-.005-.03-.025" fill="#fff"></path>
				<path d="m8.156-48.695c.018.072.007.127-.026.19-.053.101-.112.062-.165.128-.05.062-.099.276-.079.362-.169.058-.009.227-.015.35-.002.05-.041.105-.045.161-.01.119.017.266.068.37 .097.198.268.413.435.544 .19.148.365.572.608.631 .177.042.384-.104.543-.143 .18-.043.397.01.571-.053 .222-.079.127-.337.288-.45 .104-.074.287-.01.406-.051 .2-.069.339-.263.376-.46 .016-.082.01-.145.039-.221 .039-.103.111-.16.09-.293-.01-.062-.052-.12-.064-.187-.022-.114.002-.224 0-.337-.003-.2.017-.379-.078-.55-.38-.688-1.236-.929-1.975-.789-.18.034-.287.126-.442.207-.17.088-.139.166-.318.224-.081.026-.216.124-.215.224 .001.115.005.051.012.169-.021.011-.021-.005-.03-.025" fill="#fff"></path>
				<path d="m.495-48.695c.018.072.007.127-.026.19-.053.101-.112.062-.165.128-.05.062-.099.276-.079.362-.169.058-.01.227-.015.35-.002.05-.041.105-.045.161-.01.119.017.266.068.37 .097.198.268.413.435.544 .19.148.365.572.608.631 .177.042.384-.104.543-.143 .18-.043.397.01.571-.053 .222-.079.127-.337.288-.45 .104-.074.287-.01.406-.051 .2-.069.339-.263.376-.46 .016-.082.01-.145.039-.221 .039-.103.111-.16.09-.293-.01-.062-.052-.12-.064-.187-.022-.114.002-.224 0-.337-.003-.2.017-.379-.078-.55-.38-.688-1.236-.929-1.975-.789-.18.034-.287.126-.442.207-.17.088-.139.166-.318.224-.081.026-.216.124-.215.224 .001.115.005.051.012.169-.021.011-.021-.005-.03-.025" fill="#fff"></path>
			
			
				<path d="m69.439-41.042c.018.072.007.127-.026.19-.053.101-.112.062-.165.128-.05.062-.099.276-.079.362-.169.058-.01.227-.015.35-.002.05-.041.105-.045.161-.01.119.017.266.068.37 .097.198.268.413.435.544 .19.148.365.572.608.631 .177.042.384-.104.543-.143 .18-.043.397.01.571-.053 .222-.079.127-.337.288-.45 .104-.074.287-.01.406-.051 .2-.069.339-.263.376-.46 .016-.082.01-.145.039-.221 .039-.103.111-.16.09-.293-.01-.062-.052-.12-.064-.187-.022-.114.002-.224 0-.337-.003-.2.017-.379-.078-.55-.38-.688-1.236-.929-1.975-.789-.18.034-.287.126-.442.207-.17.088-.139.166-.318.224-.081.026-.216.124-.215.224 .001.115.005.051.012.169-.021.011-.021-.005-.03-.025" fill="#fff"></path>
				<path d="m61.778-41.042c.018.072.007.127-.026.19-.053.101-.112.062-.165.128-.05.062-.099.276-.079.362-.169.058-.009.227-.015.35-.002.05-.041.105-.045.161-.01.119.017.266.068.37 .097.198.268.413.435.544 .19.148.365.572.608.631 .177.042.384-.104.543-.143 .18-.043.397.01.571-.053 .222-.079.127-.337.288-.45 .104-.074.287-.01.406-.051 .2-.069.339-.263.376-.46 .016-.082.01-.145.039-.221 .039-.103.111-.16.09-.293-.01-.062-.052-.12-.064-.187-.022-.114.002-.224 0-.337-.003-.2.017-.379-.078-.55-.38-.688-1.236-.929-1.975-.789-.18.034-.287.126-.442.207-.17.088-.139.166-.318.224-.081.026-.216.124-.215.224 .001.115.005.051.012.169-.021.011-.021-.005-.03-.025" fill="#fff"></path>
				<path d="m54.118-41.042c.018.072.007.127-.026.19-.053.101-.112.062-.165.128-.05.062-.099.276-.079.362-.169.058-.009.227-.015.35-.002.05-.041.105-.045.161-.01.119.017.266.068.37 .097.198.268.413.435.544 .19.148.365.572.608.631 .177.042.384-.104.543-.143 .18-.043.397.01.571-.053 .222-.079.127-.337.288-.45 .104-.074.287-.01.406-.051 .2-.069.339-.263.376-.46 .016-.082.01-.145.039-.221 .039-.103.111-.16.09-.293-.01-.062-.052-.12-.064-.187-.022-.114.002-.224 0-.337-.003-.2.017-.379-.078-.55-.38-.688-1.236-.929-1.975-.789-.18.034-.287.126-.442.207-.17.088-.139.166-.318.224-.081.026-.216.124-.215.224 .001.115.005.051.012.169-.021.011-.021-.005-.03-.025" fill="#fff"></path>
				<path d="m46.458-41.042c.018.072.007.127-.026.19-.053.101-.112.062-.165.128-.05.062-.099.276-.079.362-.169.058-.009.227-.015.35-.002.05-.041.105-.045.161-.01.119.017.266.068.37 .097.198.268.413.435.544 .19.148.365.572.608.631 .177.042.384-.104.543-.143 .18-.043.397.01.571-.053 .222-.079.127-.337.288-.45 .104-.074.287-.01.406-.051 .2-.069.339-.263.376-.46 .016-.082.01-.145.039-.221 .039-.103.111-.16.09-.293-.01-.062-.052-.12-.064-.187-.022-.114.002-.224 0-.337-.003-.2.017-.379-.078-.55-.38-.688-1.236-.929-1.975-.789-.18.034-.287.126-.442.207-.17.088-.139.166-.318.224-.081.026-.216.124-.215.224 .001.115.005.051.012.169-.021.011-.021-.005-.03-.025" fill="#fff"></path>
				<path d="m38.797-41.042c.018.072.007.127-.026.19-.053.101-.112.062-.165.128-.05.062-.099.276-.079.362-.169.058-.009.227-.015.35-.002.05-.041.105-.045.161-.01.119.017.266.068.37 .097.198.268.413.435.544 .19.148.365.572.608.631 .177.042.384-.104.543-.143 .18-.043.397.01.571-.053 .222-.079.127-.337.288-.45 .104-.074.287-.01.406-.051 .2-.069.339-.263.376-.46 .016-.082.01-.145.039-.221 .039-.103.111-.16.09-.293-.01-.062-.052-.12-.064-.187-.022-.114.002-.224 0-.337-.003-.2.017-.379-.078-.55-.38-.688-1.236-.929-1.975-.789-.18.034-.287.126-.442.207-.17.088-.139.166-.318.224-.081.026-.216.124-.215.224 .001.115.005.051.012.169-.021.011-.021-.005-.03-.025" fill="#fff"></path>
				<path d="m31.137-41.042c.018.072.007.127-.026.19-.053.101-.112.062-.165.128-.05.062-.099.276-.079.362-.169.058-.009.227-.015.35-.002.05-.041.105-.045.161-.01.119.017.266.068.37 .097.198.268.413.435.544 .19.148.365.572.608.631 .177.042.384-.104.543-.143 .18-.043.397.01.571-.053 .222-.079.127-.337.288-.45 .104-.074.287-.01.406-.051 .2-.069.339-.263.376-.46 .016-.082.01-.145.039-.221 .039-.103.111-.16.09-.293-.01-.062-.052-.12-.064-.187-.022-.114.002-.224 0-.337-.003-.2.017-.379-.078-.55-.38-.688-1.236-.929-1.975-.789-.18.034-.287.126-.442.207-.17.088-.139.166-.318.224-.081.026-.216.124-.215.224 .001.115.005.051.012.169-.021.011-.021-.005-.03-.025" fill="#fff"></path>
				<path d="m23.477-41.042c.018.072.007.127-.026.19-.053.101-.112.062-.165.128-.05.062-.099.276-.079.362-.169.058-.009.227-.015.35-.002.05-.041.105-.045.161-.01.119.017.266.068.37 .097.198.268.413.435.544 .19.148.365.572.608.631 .177.042.384-.104.543-.143 .18-.043.397.01.571-.053 .222-.079.127-.337.288-.45 .104-.074.287-.01.406-.051 .2-.069.339-.263.376-.46 .016-.082.01-.145.039-.221 .039-.103.111-.16.09-.293-.01-.062-.052-.12-.064-.187-.022-.114.002-.224 0-.337-.003-.2.017-.379-.078-.55-.38-.688-1.236-.929-1.975-.789-.18.034-.287.126-.442.207-.17.088-.139.166-.318.224-.081.026-.216.124-.215.224 .001.115.005.051.012.169-.021.011-.021-.005-.03-.025" fill="#fff"></path>
				<path d="m15.816-41.042c.018.072.007.127-.026.19-.053.101-.112.062-.165.128-.05.062-.099.276-.079.362-.169.058-.009.227-.015.35-.002.05-.041.105-.045.161-.01.119.017.266.068.37 .097.198.268.413.435.544 .19.148.365.572.608.631 .177.042.384-.104.543-.143 .18-.043.397.01.571-.053 .222-.079.127-.337.288-.45 .104-.074.287-.01.406-.051 .2-.069.339-.263.376-.46 .016-.082.01-.145.039-.221 .039-.103.111-.16.09-.293-.01-.062-.052-.12-.064-.187-.022-.114.002-.224 0-.337-.003-.2.017-.379-.078-.55-.38-.688-1.236-.929-1.975-.789-.18.034-.287.126-.442.207-.17.088-.139.166-.318.224-.081.026-.216.124-.215.224 .001.115.005.051.012.169-.021.011-.021-.005-.03-.025" fill="#fff"></path>
				<path d="m8.156-41.042c.018.072.007.127-.026.19-.053.101-.112.062-.165.128-.05.062-.099.276-.079.362-.169.058-.009.227-.015.35-.002.05-.041.105-.045.161-.01.119.017.266.068.37 .097.198.268.413.435.544 .19.148.365.572.608.631 .177.042.384-.104.543-.143 .18-.043.397.01.571-.053 .222-.079.127-.337.288-.45 .104-.074.287-.01.406-.051 .2-.069.339-.263.376-.46 .016-.082.01-.145.039-.221 .039-.103.111-.16.09-.293-.01-.062-.052-.12-.064-.187-.022-.114.002-.224 0-.337-.003-.2.017-.379-.078-.55-.38-.688-1.236-.929-1.975-.789-.18.034-.287.126-.442.207-.17.088-.139.166-.318.224-.081.026-.216.124-.215.224 .001.115.005.051.012.169-.02.012-.021-.004-.03-.024" fill="#fff"></path>
				<path d="m.495-41.042c.018.072.007.127-.026.19-.053.101-.112.062-.165.128-.05.062-.099.276-.079.362-.169.058-.01.227-.015.35-.002.05-.041.105-.045.161-.01.119.017.266.068.37 .097.198.268.413.435.544 .19.148.365.572.608.631 .177.042.384-.104.543-.143 .18-.043.397.01.571-.053 .222-.079.127-.337.288-.45 .104-.074.287-.01.406-.051 .2-.069.339-.263.376-.46 .016-.082.01-.145.039-.221 .039-.103.111-.16.09-.293-.01-.062-.052-.12-.064-.187-.022-.114.002-.224 0-.337-.003-.2.017-.379-.078-.55-.38-.688-1.236-.929-1.975-.789-.18.034-.287.126-.442.207-.17.088-.139.166-.318.224-.081.026-.216.124-.215.224 .001.115.005.051.012.169-.021.011-.021-.005-.03-.025" fill="#fff"></path>
			
			
				<path d="m69.439-33.39c.018.072.007.127-.026.19-.053.101-.112.062-.165.128-.05.062-.099.276-.079.362-.169.058-.01.227-.015.35-.002.05-.041.105-.045.161-.01.119.017.266.068.37 .097.198.268.413.435.544 .19.148.365.572.608.631 .177.042.384-.104.543-.143 .18-.043.397.01.571-.053 .222-.079.127-.337.288-.45 .104-.074.287-.01.406-.051 .2-.069.339-.263.376-.46 .016-.082.01-.145.039-.221 .039-.103.111-.16.09-.293-.01-.062-.052-.12-.064-.187-.022-.114.002-.224 0-.337-.003-.2.017-.379-.078-.55-.38-.688-1.236-.929-1.975-.789-.18.034-.287.126-.442.207-.17.088-.139.166-.318.224-.081.026-.216.124-.215.224 .001.115.005.051.012.169-.021.011-.021-.005-.03-.025" fill="#fff"></path>
				<path d="m61.778-33.39c.018.072.007.127-.026.19-.053.101-.112.062-.165.128-.05.062-.099.276-.079.362-.169.058-.009.227-.015.35-.002.05-.041.105-.045.161-.01.119.017.266.068.37 .097.198.268.413.435.544 .19.148.365.572.608.631 .177.042.384-.104.543-.143 .18-.043.397.01.571-.053 .222-.079.127-.337.288-.45 .104-.074.287-.01.406-.051 .2-.069.339-.263.376-.46 .016-.082.01-.145.039-.221 .039-.103.111-.16.09-.293-.01-.062-.052-.12-.064-.187-.022-.114.002-.224 0-.337-.003-.2.017-.379-.078-.55-.38-.688-1.236-.929-1.975-.789-.18.034-.287.126-.442.207-.17.088-.139.166-.318.224-.081.026-.216.124-.215.224 .001.115.005.051.012.169-.021.011-.021-.005-.03-.025" fill="#fff"></path>
				<path d="m54.118-33.39c.018.072.007.127-.026.19-.053.101-.112.062-.165.128-.05.062-.099.276-.079.362-.169.058-.009.227-.015.35-.002.05-.041.105-.045.161-.01.119.017.266.068.37 .097.198.268.413.435.544 .19.148.365.572.608.631 .177.042.384-.104.543-.143 .18-.043.397.01.571-.053 .222-.079.127-.337.288-.45 .104-.074.287-.01.406-.051 .2-.069.339-.263.376-.46 .016-.082.01-.145.039-.221 .039-.103.111-.16.09-.293-.01-.062-.052-.12-.064-.187-.022-.114.002-.224 0-.337-.003-.2.017-.379-.078-.55-.38-.688-1.236-.929-1.975-.789-.18.034-.287.126-.442.207-.17.088-.139.166-.318.224-.081.026-.216.124-.215.224 .001.115.005.051.012.169-.021.011-.021-.005-.03-.025" fill="#fff"></path>
				<path d="m46.458-33.39c.018.072.007.127-.026.19-.053.101-.112.062-.165.128-.05.062-.099.276-.079.362-.169.058-.009.227-.015.35-.002.05-.041.105-.045.161-.01.119.017.266.068.37 .097.198.268.413.435.544 .19.148.365.572.608.631 .177.042.384-.104.543-.143 .18-.043.397.01.571-.053 .222-.079.127-.337.288-.45 .104-.074.287-.01.406-.051 .2-.069.339-.263.376-.46 .016-.082.01-.145.039-.221 .039-.103.111-.16.09-.293-.01-.062-.052-.12-.064-.187-.022-.114.002-.224 0-.337-.003-.2.017-.379-.078-.55-.38-.688-1.236-.929-1.975-.789-.18.034-.287.126-.442.207-.17.088-.139.166-.318.224-.081.026-.216.124-.215.224 .001.115.005.051.012.169-.021.011-.021-.005-.03-.025" fill="#fff"></path>
				<path d="m38.797-33.39c.018.072.007.127-.026.19-.053.101-.112.062-.165.128-.05.062-.099.276-.079.362-.169.058-.009.227-.015.35-.002.05-.041.105-.045.161-.01.119.017.266.068.37 .097.198.268.413.435.544 .19.148.365.572.608.631 .177.042.384-.104.543-.143 .18-.043.397.01.571-.053 .222-.079.127-.337.288-.45 .104-.074.287-.01.406-.051 .2-.069.339-.263.376-.46 .016-.082.01-.145.039-.221 .039-.103.111-.16.09-.293-.01-.062-.052-.12-.064-.187-.022-.114.002-.224 0-.337-.003-.2.017-.379-.078-.55-.38-.688-1.236-.929-1.975-.789-.18.034-.287.126-.442.207-.17.088-.139.166-.318.224-.081.026-.216.124-.215.224 .001.115.005.051.012.169-.021.011-.021-.005-.03-.025" fill="#fff"></path>
				<path d="m31.137-33.39c.018.072.007.127-.026.19-.053.101-.112.062-.165.128-.05.062-.099.276-.079.362-.169.058-.009.227-.015.35-.002.05-.041.105-.045.161-.01.119.017.266.068.37 .097.198.268.413.435.544 .19.148.365.572.608.631 .177.042.384-.104.543-.143 .18-.043.397.01.571-.053 .222-.079.127-.337.288-.45 .104-.074.287-.01.406-.051 .2-.069.339-.263.376-.46 .016-.082.01-.145.039-.221 .039-.103.111-.16.09-.293-.01-.062-.052-.12-.064-.187-.022-.114.002-.224 0-.337-.003-.2.017-.379-.078-.55-.38-.688-1.236-.929-1.975-.789-.18.034-.287.126-.442.207-.17.088-.139.166-.318.224-.081.026-.216.124-.215.224 .001.115.005.051.012.169-.021.011-.021-.005-.03-.025" fill="#fff"></path>
				<path d="m23.477-33.39c.018.072.007.127-.026.19-.053.101-.112.062-.165.128-.05.062-.099.276-.079.362-.169.058-.009.227-.015.35-.002.05-.041.105-.045.161-.01.119.017.266.068.37 .097.198.268.413.435.544 .19.148.365.572.608.631 .177.042.384-.104.543-.143 .18-.043.397.01.571-.053 .222-.079.127-.337.288-.45 .104-.074.287-.01.406-.051 .2-.069.339-.263.376-.46 .016-.082.01-.145.039-.221 .039-.103.111-.16.09-.293-.01-.062-.052-.12-.064-.187-.022-.114.002-.224 0-.337-.003-.2.017-.379-.078-.55-.38-.688-1.236-.929-1.975-.789-.18.034-.287.126-.442.207-.17.088-.139.166-.318.224-.081.026-.216.124-.215.224 .001.115.005.051.012.169-.021.011-.021-.005-.03-.025" fill="#fff"></path>
				<path d="m15.816-33.39c.018.072.007.127-.026.19-.053.101-.112.062-.165.128-.05.062-.099.276-.079.362-.169.058-.009.227-.015.35-.002.05-.041.105-.045.161-.01.119.017.266.068.37 .097.198.268.413.435.544 .19.148.365.572.608.631 .177.042.384-.104.543-.143 .18-.043.397.01.571-.053 .222-.079.127-.337.288-.45 .104-.074.287-.01.406-.051 .2-.069.339-.263.376-.46 .016-.082.01-.145.039-.221 .039-.103.111-.16.09-.293-.01-.062-.052-.12-.064-.187-.022-.114.002-.224 0-.337-.003-.2.017-.379-.078-.55-.38-.688-1.236-.929-1.975-.789-.18.034-.287.126-.442.207-.17.088-.139.166-.318.224-.081.026-.216.124-.215.224 .001.115.005.051.012.169-.021.011-.021-.005-.03-.025" fill="#fff"></path>
				<path d="m8.156-33.39c.018.072.007.127-.026.19-.053.101-.112.062-.165.128-.05.062-.099.276-.079.362-.169.058-.009.227-.015.35-.002.05-.041.105-.045.161-.01.119.017.266.068.37 .097.198.268.413.435.544 .19.148.365.572.608.631 .177.042.384-.104.543-.143 .18-.043.397.01.571-.053 .222-.079.127-.337.288-.45 .104-.074.287-.01.406-.051 .2-.069.339-.263.376-.46 .016-.082.01-.145.039-.221 .039-.103.111-.16.09-.293-.01-.062-.052-.12-.064-.187-.022-.114.002-.224 0-.337-.003-.2.017-.379-.078-.55-.38-.688-1.236-.929-1.975-.789-.18.034-.287.126-.442.207-.17.088-.139.166-.318.224-.081.026-.216.124-.215.224 .001.115.005.051.012.169-.021.011-.021-.005-.03-.025" fill="#fff"></path>
				<path d="m.495-33.39c.018.072.007.127-.026.19-.053.101-.112.062-.165.128-.05.062-.099.276-.079.362-.169.058-.01.227-.015.35-.002.05-.041.105-.045.161-.01.119.017.266.068.37 .097.198.268.413.435.544 .19.148.365.572.608.631 .177.042.384-.104.543-.143 .18-.043.397.01.571-.053 .222-.079.127-.337.288-.45 .104-.074.287-.01.406-.051 .2-.069.339-.263.376-.46 .016-.082.01-.145.039-.221 .039-.103.111-.16.09-.293-.01-.062-.052-.12-.064-.187-.022-.114.002-.224 0-.337-.003-.2.017-.379-.078-.55-.38-.688-1.236-.929-1.975-.789-.18.034-.287.126-.442.207-.17.088-.139.166-.318.224-.081.026-.216.124-.215.224 .003.117.006.053.013.171-.021.011-.021-.005-.03-.025" fill="#fff"></path>
			
			
				<path d="m69.439-25.736c.018.072.007.127-.026.19-.053.101-.112.062-.165.128-.05.062-.099.276-.079.362-.169.058-.01.227-.015.35-.002.05-.041.105-.045.161-.01.119.017.266.068.37 .097.198.268.413.435.544 .19.148.365.572.608.631 .177.042.384-.104.543-.143 .18-.043.397.01.571-.053 .222-.079.127-.337.288-.45 .104-.074.287-.01.406-.051 .2-.069.339-.263.376-.46 .016-.082.01-.145.039-.221 .039-.103.111-.16.09-.293-.01-.062-.052-.12-.064-.187-.022-.114.002-.224 0-.337-.003-.2.017-.379-.078-.55-.38-.688-1.236-.929-1.975-.789-.18.034-.287.126-.442.207-.17.088-.139.166-.318.224-.081.026-.216.124-.215.224 .001.115.005.051.012.169-.021.011-.021-.005-.03-.025" fill="#fff"></path>
				<path d="m61.778-25.736c.018.072.007.127-.026.19-.053.101-.112.062-.165.128-.05.062-.099.276-.079.362-.169.058-.009.227-.015.35-.002.05-.041.105-.045.161-.01.119.017.266.068.37 .097.198.268.413.435.544 .19.148.365.572.608.631 .177.042.384-.104.543-.143 .18-.043.397.01.571-.053 .222-.079.127-.337.288-.45 .104-.074.287-.01.406-.051 .2-.069.339-.263.376-.46 .016-.082.01-.145.039-.221 .039-.103.111-.16.09-.293-.01-.062-.052-.12-.064-.187-.022-.114.002-.224 0-.337-.003-.2.017-.379-.078-.55-.38-.688-1.236-.929-1.975-.789-.18.034-.287.126-.442.207-.17.088-.139.166-.318.224-.081.026-.216.124-.215.224 .001.115.005.051.012.169-.021.011-.021-.005-.03-.025" fill="#fff"></path>
				<path d="m54.118-25.736c.018.072.007.127-.026.19-.053.101-.112.062-.165.128-.05.062-.099.276-.079.362-.169.058-.009.227-.015.35-.002.05-.041.105-.045.161-.01.119.017.266.068.37 .097.198.268.413.435.544 .19.148.365.572.608.631 .177.042.384-.104.543-.143 .18-.043.397.01.571-.053 .222-.079.127-.337.288-.45 .104-.074.287-.01.406-.051 .2-.069.339-.263.376-.46 .016-.082.01-.145.039-.221 .039-.103.111-.16.09-.293-.01-.062-.052-.12-.064-.187-.022-.114.002-.224 0-.337-.003-.2.017-.379-.078-.55-.38-.688-1.236-.929-1.975-.789-.18.034-.287.126-.442.207-.17.088-.139.166-.318.224-.081.026-.216.124-.215.224 .001.115.005.051.012.169-.021.011-.021-.005-.03-.025" fill="#fff"></path>
				<path d="m46.458-25.736c.018.072.007.127-.026.19-.053.101-.112.062-.165.128-.05.062-.099.276-.079.362-.169.058-.009.227-.015.35-.002.05-.041.105-.045.161-.01.119.017.266.068.37 .097.198.268.413.435.544 .19.148.365.572.608.631 .177.042.384-.104.543-.143 .18-.043.397.01.571-.053 .222-.079.127-.337.288-.45 .104-.074.287-.01.406-.051 .2-.069.339-.263.376-.46 .016-.082.01-.145.039-.221 .039-.103.111-.16.09-.293-.01-.062-.052-.12-.064-.187-.022-.114.002-.224 0-.337-.003-.2.017-.379-.078-.55-.38-.688-1.236-.929-1.975-.789-.18.034-.287.126-.442.207-.17.088-.139.166-.318.224-.081.026-.216.124-.215.224 .001.115.005.051.012.169-.021.011-.021-.005-.03-.025" fill="#fff"></path>
				<path d="m38.797-25.736c.018.072.007.127-.026.19-.053.101-.112.062-.165.128-.05.062-.099.276-.079.362-.169.058-.009.227-.015.35-.002.05-.041.105-.045.161-.01.119.017.266.068.37 .097.198.268.413.435.544 .19.148.365.572.608.631 .177.042.384-.104.543-.143 .18-.043.397.01.571-.053 .222-.079.127-.337.288-.45 .104-.074.287-.01.406-.051 .2-.069.339-.263.376-.46 .016-.082.01-.145.039-.221 .039-.103.111-.16.09-.293-.01-.062-.052-.12-.064-.187-.022-.114.002-.224 0-.337-.003-.2.017-.379-.078-.55-.38-.688-1.236-.929-1.975-.789-.18.034-.287.126-.442.207-.17.088-.139.166-.318.224-.081.026-.216.124-.215.224 .001.115.005.051.012.169-.021.011-.021-.005-.03-.025" fill="#fff"></path>
				<path d="m31.137-25.736c.018.072.007.127-.026.19-.053.101-.112.062-.165.128-.05.062-.099.276-.079.362-.169.058-.009.227-.015.35-.002.05-.041.105-.045.161-.01.119.017.266.068.37 .097.198.268.413.435.544 .19.148.365.572.608.631 .177.042.384-.104.543-.143 .18-.043.397.01.571-.053 .222-.079.127-.337.288-.45 .104-.074.287-.01.406-.051 .2-.069.339-.263.376-.46 .016-.082.01-.145.039-.221 .039-.103.111-.16.09-.293-.01-.062-.052-.12-.064-.187-.022-.114.002-.224 0-.337-.003-.2.017-.379-.078-.55-.38-.688-1.236-.929-1.975-.789-.18.034-.287.126-.442.207-.17.088-.139.166-.318.224-.081.026-.216.124-.215.224 .001.115.005.051.012.169-.021.011-.021-.005-.03-.025" fill="#fff"></path>
				<path d="m23.477-25.736c.018.072.007.127-.026.19-.053.101-.112.062-.165.128-.05.062-.099.276-.079.362-.169.058-.009.227-.015.35-.002.05-.041.105-.045.161-.01.119.017.266.068.37 .097.198.268.413.435.544 .19.148.365.572.608.631 .177.042.384-.104.543-.143 .18-.043.397.01.571-.053 .222-.079.127-.337.288-.45 .104-.074.287-.01.406-.051 .2-.069.339-.263.376-.46 .016-.082.01-.145.039-.221 .039-.103.111-.16.09-.293-.01-.062-.052-.12-.064-.187-.022-.114.002-.224 0-.337-.003-.2.017-.379-.078-.55-.38-.688-1.236-.929-1.975-.789-.18.034-.287.126-.442.207-.17.088-.139.166-.318.224-.081.026-.216.124-.215.224 .001.115.005.051.012.169-.021.011-.021-.005-.03-.025" fill="#fff"></path>
				<path d="m15.816-25.736c.018.072.007.127-.026.19-.053.101-.112.062-.165.128-.05.062-.099.276-.079.362-.169.058-.009.227-.015.35-.002.05-.041.105-.045.161-.01.119.017.266.068.37 .097.198.268.413.435.544 .19.148.365.572.608.631 .177.042.384-.104.543-.143 .18-.043.397.01.571-.053 .222-.079.127-.337.288-.45 .104-.074.287-.01.406-.051 .2-.069.339-.263.376-.46 .016-.082.01-.145.039-.221 .039-.103.111-.16.09-.293-.01-.062-.052-.12-.064-.187-.022-.114.002-.224 0-.337-.003-.2.017-.379-.078-.55-.38-.688-1.236-.929-1.975-.789-.18.034-.287.126-.442.207-.17.088-.139.166-.318.224-.081.026-.216.124-.215.224 .001.115.005.051.012.169-.021.011-.021-.005-.03-.025" fill="#fff"></path>
				<path d="m8.156-25.736c.018.072.007.127-.026.19-.053.101-.112.062-.165.128-.05.062-.099.276-.079.362-.169.058-.009.227-.015.35-.002.05-.041.105-.045.161-.01.119.017.266.068.37 .097.198.268.413.435.544 .19.148.365.572.608.631 .177.042.384-.104.543-.143 .18-.043.397.01.571-.053 .222-.079.127-.337.288-.45 .104-.074.287-.01.406-.051 .2-.069.339-.263.376-.46 .016-.082.01-.145.039-.221 .039-.103.111-.16.09-.293-.01-.062-.052-.12-.064-.187-.022-.114.002-.224 0-.337-.003-.2.017-.379-.078-.55-.38-.688-1.236-.929-1.975-.789-.18.034-.287.126-.442.207-.17.088-.139.166-.318.224-.081.026-.216.124-.215.224 .001.115.005.051.012.169-.021.011-.021-.005-.03-.025" fill="#fff"></path>
				<path d="m.495-25.736c.018.072.007.127-.026.19-.053.101-.112.062-.165.128-.05.062-.099.276-.079.362-.169.058-.01.227-.015.35-.002.05-.041.105-.045.161-.01.119.017.266.068.37 .097.198.268.413.435.544 .19.148.365.572.608.631 .177.042.384-.104.543-.143 .18-.043.397.01.571-.053 .222-.079.127-.337.288-.45 .104-.074.287-.01.406-.051 .2-.069.339-.263.376-.46 .016-.082.01-.145.039-.221 .039-.103.111-.16.09-.293-.01-.062-.052-.12-.064-.187-.022-.114.002-.224 0-.337-.003-.2.017-.379-.078-.55-.38-.688-1.236-.929-1.975-.789-.18.034-.287.126-.442.207-.17.088-.139.166-.318.224-.081.026-.216.124-.215.224 .001.115.005.051.012.169-.021.011-.021-.005-.03-.025" fill="#fff"></path>
			
			
				<path d="m69.439-18.084c.018.072.007.127-.026.19-.053.101-.112.062-.165.128-.05.062-.099.276-.079.362-.169.058-.01.227-.015.35-.002.05-.041.105-.045.161-.01.119.017.266.068.37 .097.198.268.413.435.544 .19.148.365.572.608.631 .177.042.384-.104.543-.143 .18-.043.397.01.571-.053 .222-.079.127-.337.288-.45 .104-.074.287-.01.406-.051 .2-.069.339-.263.376-.46 .016-.082.01-.145.039-.221 .039-.103.111-.16.09-.293-.01-.062-.052-.12-.064-.187-.022-.114.002-.224 0-.337-.003-.2.017-.379-.078-.55-.38-.688-1.236-.929-1.975-.789-.18.034-.287.126-.442.207-.17.088-.139.166-.318.224-.081.026-.216.124-.215.224 .001.115.005.051.012.169-.021.011-.021-.005-.03-.025" fill="#fff"></path>
				<path d="m61.778-18.084c.018.072.007.127-.026.19-.053.101-.112.062-.165.128-.05.062-.099.276-.079.362-.169.058-.009.227-.015.35-.002.05-.041.105-.045.161-.01.119.017.266.068.37 .097.198.268.413.435.544 .19.148.365.572.608.631 .177.042.384-.104.543-.143 .18-.043.397.01.571-.053 .222-.079.127-.337.288-.45 .104-.074.287-.01.406-.051 .2-.069.339-.263.376-.46 .016-.082.01-.145.039-.221 .039-.103.111-.16.09-.293-.01-.062-.052-.12-.064-.187-.022-.114.002-.224 0-.337-.003-.2.017-.379-.078-.55-.38-.688-1.236-.929-1.975-.789-.18.034-.287.126-.442.207-.17.088-.139.166-.318.224-.081.026-.216.124-.215.224 .001.115.005.051.012.169-.021.011-.021-.005-.03-.025" fill="#fff"></path>
				<path d="m54.118-18.084c.018.072.007.127-.026.19-.053.101-.112.062-.165.128-.05.062-.099.276-.079.362-.169.058-.009.227-.015.35-.002.05-.041.105-.045.161-.01.119.017.266.068.37 .097.198.268.413.435.544 .19.148.365.572.608.631 .177.042.384-.104.543-.143 .18-.043.397.01.571-.053 .222-.079.127-.337.288-.45 .104-.074.287-.01.406-.051 .2-.069.339-.263.376-.46 .016-.082.01-.145.039-.221 .039-.103.111-.16.09-.293-.01-.062-.052-.12-.064-.187-.022-.114.002-.224 0-.337-.003-.2.017-.379-.078-.55-.38-.688-1.236-.929-1.975-.789-.18.034-.287.126-.442.207-.17.088-.139.166-.318.224-.081.026-.216.124-.215.224 .001.115.005.051.012.169-.021.011-.021-.005-.03-.025" fill="#fff"></path>
				<path d="m46.458-18.084c.018.072.007.127-.026.19-.053.101-.112.062-.165.128-.05.062-.099.276-.079.362-.169.058-.009.227-.015.35-.002.05-.041.105-.045.161-.01.119.017.266.068.37 .097.198.268.413.435.544 .19.148.365.572.608.631 .177.042.384-.104.543-.143 .18-.043.397.01.571-.053 .222-.079.127-.337.288-.45 .104-.074.287-.01.406-.051 .2-.069.339-.263.376-.46 .016-.082.01-.145.039-.221 .039-.103.111-.16.09-.293-.01-.062-.052-.12-.064-.187-.022-.114.002-.224 0-.337-.003-.2.017-.379-.078-.55-.38-.688-1.236-.929-1.975-.789-.18.034-.287.126-.442.207-.17.088-.139.166-.318.224-.081.026-.216.124-.215.224 .001.115.005.051.012.169-.021.011-.021-.005-.03-.025" fill="#fff"></path>
				<path d="m38.797-18.084c.018.072.007.127-.026.19-.053.101-.112.062-.165.128-.05.062-.099.276-.079.362-.169.058-.009.227-.015.35-.002.05-.041.105-.045.161-.01.119.017.266.068.37 .097.198.268.413.435.544 .19.148.365.572.608.631 .177.042.384-.104.543-.143 .18-.043.397.01.571-.053 .222-.079.127-.337.288-.45 .104-.074.287-.01.406-.051 .2-.069.339-.263.376-.46 .016-.082.01-.145.039-.221 .039-.103.111-.16.09-.293-.01-.062-.052-.12-.064-.187-.022-.114.002-.224 0-.337-.003-.2.017-.379-.078-.55-.38-.688-1.236-.929-1.975-.789-.18.034-.287.126-.442.207-.17.088-.139.166-.318.224-.081.026-.216.124-.215.224 .001.115.005.051.012.169-.021.011-.021-.005-.03-.025" fill="#fff"></path>
				<path d="m31.137-18.084c.018.072.007.127-.026.19-.053.101-.112.062-.165.128-.05.062-.099.276-.079.362-.169.058-.009.227-.015.35-.002.05-.041.105-.045.161-.01.119.017.266.068.37 .097.198.268.413.435.544 .19.148.365.572.608.631 .177.042.384-.104.543-.143 .18-.043.397.01.571-.053 .222-.079.127-.337.288-.45 .104-.074.287-.01.406-.051 .2-.069.339-.263.376-.46 .016-.082.01-.145.039-.221 .039-.103.111-.16.09-.293-.01-.062-.052-.12-.064-.187-.022-.114.002-.224 0-.337-.003-.2.017-.379-.078-.55-.38-.688-1.236-.929-1.975-.789-.18.034-.287.126-.442.207-.17.088-.139.166-.318.224-.081.026-.216.124-.215.224 .001.115.005.051.012.169-.021.011-.021-.005-.03-.025" fill="#fff"></path>
				<path d="m23.477-18.084c.018.072.007.127-.026.19-.053.101-.112.062-.165.128-.05.062-.099.276-.079.362-.169.058-.009.227-.015.35-.002.05-.041.105-.045.161-.01.119.017.266.068.37 .097.198.268.413.435.544 .19.148.365.572.608.631 .177.042.384-.104.543-.143 .18-.043.397.01.571-.053 .222-.079.127-.337.288-.45 .104-.074.287-.01.406-.051 .2-.069.339-.263.376-.46 .016-.082.01-.145.039-.221 .039-.103.111-.16.09-.293-.01-.062-.052-.12-.064-.187-.022-.114.002-.224 0-.337-.003-.2.017-.379-.078-.55-.38-.688-1.236-.929-1.975-.789-.18.034-.287.126-.442.207-.17.088-.139.166-.318.224-.081.026-.216.124-.215.224 .001.115.005.051.012.169-.021.011-.021-.005-.03-.025" fill="#fff"></path>
				<path d="m15.816-18.084c.018.072.007.127-.026.19-.053.101-.112.062-.165.128-.05.062-.099.276-.079.362-.169.058-.009.227-.015.35-.002.05-.041.105-.045.161-.01.119.017.266.068.37 .097.198.268.413.435.544 .19.148.365.572.608.631 .177.042.384-.104.543-.143 .18-.043.397.01.571-.053 .222-.079.127-.337.288-.45 .104-.074.287-.01.406-.051 .2-.069.339-.263.376-.46 .016-.082.01-.145.039-.221 .039-.103.111-.16.09-.293-.01-.062-.052-.12-.064-.187-.022-.114.002-.224 0-.337-.003-.2.017-.379-.078-.55-.38-.688-1.236-.929-1.975-.789-.18.034-.287.126-.442.207-.17.088-.139.166-.318.224-.081.026-.216.124-.215.224 .001.115.005.051.012.169-.021.011-.021-.005-.03-.025" fill="#fff"></path>
				<path d="m8.156-18.084c.018.072.007.127-.026.19-.053.101-.112.062-.165.128-.05.062-.099.276-.079.362-.169.058-.009.227-.015.35-.002.05-.041.105-.045.161-.01.119.017.266.068.37 .097.198.268.413.435.544 .19.148.365.572.608.631 .177.042.384-.104.543-.143 .18-.043.397.01.571-.053 .222-.079.127-.337.288-.45 .104-.074.287-.01.406-.051 .2-.069.339-.263.376-.46 .016-.082.01-.145.039-.221 .039-.103.111-.16.09-.293-.01-.062-.052-.12-.064-.187-.022-.114.002-.224 0-.337-.003-.2.017-.379-.078-.55-.38-.688-1.236-.929-1.975-.789-.18.034-.287.126-.442.207-.17.088-.139.166-.318.224-.081.026-.216.124-.215.224 .001.115.005.051.012.169-.021.011-.021-.005-.03-.025" fill="#fff"></path>
				<path d="m.495-18.084c.018.072.007.127-.026.19-.053.101-.112.062-.165.128-.05.062-.099.276-.079.362-.169.058-.01.227-.015.35-.002.05-.041.105-.045.161-.01.119.017.266.068.37 .097.198.268.413.435.544 .19.148.365.572.608.631 .177.042.384-.104.543-.143 .18-.043.397.01.571-.053 .222-.079.127-.337.288-.45 .104-.074.287-.01.406-.051 .2-.069.339-.263.376-.46 .016-.082.01-.145.039-.221 .039-.103.111-.16.09-.293-.01-.062-.052-.12-.064-.187-.022-.114.002-.224 0-.337-.003-.2.017-.379-.078-.55-.38-.688-1.236-.929-1.975-.789-.18.034-.287.126-.442.207-.17.088-.139.166-.318.224-.081.026-.216.124-.215.224 .003.117.006.052.013.17-.021.011-.021-.005-.03-.025" fill="#fff"></path>
			
			
				<path d="m69.439-10.431c.018.072.007.127-.026.19-.053.101-.112.062-.165.128-.05.062-.099.276-.079.362-.169.059-.01.228-.015.351-.002.05-.041.105-.045.161-.01.119.017.266.068.37 .097.198.268.413.435.544 .19.148.365.572.608.631 .177.042.384-.104.543-.143 .18-.043.397.01.571-.053 .222-.079.127-.337.288-.45 .104-.074.287-.01.406-.051 .2-.069.339-.263.376-.46 .016-.082.01-.145.039-.221 .039-.103.111-.16.09-.293-.01-.062-.052-.12-.064-.187-.022-.114.002-.224 0-.337-.003-.2.017-.379-.078-.55-.38-.688-1.236-.929-1.975-.789-.18.034-.287.126-.442.207-.17.088-.139.166-.318.224-.081.026-.216.124-.215.224 .001.115.005.051.012.169-.021.011-.021-.005-.03-.025" fill="#fff"></path>
				<path d="m61.778-10.431c.018.072.007.127-.026.19-.053.101-.112.062-.165.128-.05.062-.099.276-.079.362-.169.058-.009.227-.015.35-.002.05-.041.105-.045.161-.01.119.017.266.068.37 .097.198.268.413.435.544 .19.148.365.572.608.631 .177.042.384-.104.543-.143 .18-.043.397.01.571-.053 .222-.079.127-.337.288-.45 .104-.074.287-.01.406-.051 .2-.069.339-.263.376-.46 .016-.082.01-.145.039-.221 .039-.103.111-.16.09-.293-.01-.062-.052-.12-.064-.187-.022-.114.002-.224 0-.337-.003-.2.017-.379-.078-.55-.38-.688-1.236-.929-1.975-.789-.18.034-.287.126-.442.207-.17.088-.139.166-.318.224-.081.026-.216.124-.215.224 .001.115.005.051.012.169-.021.011-.021-.005-.03-.025" fill="#fff"></path>
				<path d="m54.118-10.431c.018.072.007.127-.026.19-.053.101-.112.062-.165.128-.05.062-.099.276-.079.362-.169.058-.009.227-.015.35-.002.05-.041.105-.045.161-.01.119.017.266.068.37 .097.198.268.413.435.544 .19.148.365.572.608.631 .177.042.384-.104.543-.143 .18-.043.397.01.571-.053 .222-.079.127-.337.288-.45 .104-.074.287-.01.406-.051 .2-.069.339-.263.376-.46 .016-.082.01-.145.039-.221 .039-.103.111-.16.09-.293-.01-.062-.052-.12-.064-.187-.022-.114.002-.224 0-.337-.003-.2.017-.379-.078-.55-.38-.688-1.236-.929-1.975-.789-.18.034-.287.126-.442.207-.17.088-.139.166-.318.224-.081.026-.216.124-.215.224 .001.115.005.051.012.169-.021.011-.021-.005-.03-.025" fill="#fff"></path>
				<path d="m46.458-10.431c.018.072.007.127-.026.19-.053.101-.112.062-.165.128-.05.062-.099.276-.079.362-.169.058-.009.227-.015.35-.002.05-.041.105-.045.161-.01.119.017.266.068.37 .097.198.268.413.435.544 .19.148.365.572.608.631 .177.042.384-.104.543-.143 .18-.043.397.01.571-.053 .222-.079.127-.337.288-.45 .104-.074.287-.01.406-.051 .2-.069.339-.263.376-.46 .016-.082.01-.145.039-.221 .039-.103.111-.16.09-.293-.01-.062-.052-.12-.064-.187-.022-.114.002-.224 0-.337-.003-.2.017-.379-.078-.55-.38-.688-1.236-.929-1.975-.789-.18.034-.287.126-.442.207-.17.088-.139.166-.318.224-.081.026-.216.124-.215.224 .001.115.005.051.012.169-.021.011-.021-.005-.03-.025" fill="#fff"></path>
				<path d="m38.797-10.431c.018.072.007.127-.026.19-.053.101-.112.062-.165.128-.05.062-.099.276-.079.362-.169.058-.009.227-.015.35-.002.05-.041.105-.045.161-.01.119.017.266.068.37 .097.198.268.413.435.544 .19.148.365.572.608.631 .177.042.384-.104.543-.143 .18-.043.397.01.571-.053 .222-.079.127-.337.288-.45 .104-.074.287-.01.406-.051 .2-.069.339-.263.376-.46 .016-.082.01-.145.039-.221 .039-.103.111-.16.09-.293-.01-.062-.052-.12-.064-.187-.022-.114.002-.224 0-.337-.003-.2.017-.379-.078-.55-.38-.688-1.236-.929-1.975-.789-.18.034-.287.126-.442.207-.17.088-.139.166-.318.224-.081.026-.216.124-.215.224 .001.115.005.051.012.169-.021.011-.021-.005-.03-.025" fill="#fff"></path>
				<path d="m31.137-10.431c.018.072.007.127-.026.19-.053.101-.112.062-.165.128-.05.062-.099.276-.079.362-.169.058-.009.227-.015.35-.002.05-.041.105-.045.161-.01.119.017.266.068.37 .097.198.268.413.435.544 .19.148.365.572.608.631 .177.042.384-.104.543-.143 .18-.043.397.01.571-.053 .222-.079.127-.337.288-.45 .104-.074.287-.01.406-.051 .2-.069.339-.263.376-.46 .016-.082.01-.145.039-.221 .039-.103.111-.16.09-.293-.01-.062-.052-.12-.064-.187-.022-.114.002-.224 0-.337-.003-.2.017-.379-.078-.55-.38-.688-1.236-.929-1.975-.789-.18.034-.287.126-.442.207-.17.088-.139.166-.318.224-.081.026-.216.124-.215.224 .001.115.005.051.012.169-.021.011-.021-.005-.03-.025" fill="#fff"></path>
				<path d="m23.477-10.431c.018.072.007.127-.026.19-.053.101-.112.062-.165.128-.05.062-.099.276-.079.362-.169.058-.009.227-.015.35-.002.05-.041.105-.045.161-.01.119.017.266.068.37 .097.198.268.413.435.544 .19.148.365.572.608.631 .177.042.384-.104.543-.143 .18-.043.397.01.571-.053 .222-.079.127-.337.288-.45 .104-.074.287-.01.406-.051 .2-.069.339-.263.376-.46 .016-.082.01-.145.039-.221 .039-.103.111-.16.09-.293-.01-.062-.052-.12-.064-.187-.022-.114.002-.224 0-.337-.003-.2.017-.379-.078-.55-.38-.688-1.236-.929-1.975-.789-.18.034-.287.126-.442.207-.17.088-.139.166-.318.224-.081.026-.216.124-.215.224 .001.115.005.051.012.169-.021.011-.021-.005-.03-.025" fill="#fff"></path>
				<path d="m15.816-10.431c.018.072.007.127-.026.19-.053.101-.112.062-.165.128-.05.062-.099.276-.079.362-.169.058-.009.227-.015.35-.002.05-.041.105-.045.161-.01.119.017.266.068.37 .097.198.268.413.435.544 .19.148.365.572.608.631 .177.042.384-.104.543-.143 .18-.043.397.01.571-.053 .222-.078.128-.336.289-.449 .104-.074.287-.01.406-.051 .2-.069.339-.263.376-.46 .016-.082.01-.145.039-.221 .039-.103.111-.16.09-.293-.01-.062-.052-.12-.064-.187-.022-.114.002-.224 0-.337-.003-.2.017-.379-.078-.55-.38-.688-1.236-.929-1.975-.789-.18.034-.287.126-.442.207-.17.088-.139.166-.318.224-.081.026-.216.124-.215.224 .001.115.005.051.012.169-.021.011-.021-.005-.03-.025" fill="#fff"></path>
				<path d="m8.156-10.431c.018.072.007.127-.026.19-.053.101-.112.062-.165.128-.05.063-.099.277-.079.363-.169.058-.01.227-.015.35-.003.049-.041.105-.045.161-.01.119.017.266.068.37 .097.198.268.413.435.544 .19.148.365.572.608.631 .177.042.384-.105.543-.143 .18-.043.397.01.571-.053 .222-.079.127-.337.288-.45 .104-.074.287-.01.406-.051 .2-.069.339-.263.376-.46 .016-.082.01-.145.039-.221 .039-.103.111-.16.09-.293-.01-.062-.052-.12-.064-.187-.022-.114.002-.224 0-.337-.003-.2.017-.379-.078-.55-.38-.688-1.236-.929-1.975-.789-.18.034-.287.126-.442.207-.17.088-.139.166-.318.224-.081.026-.216.124-.215.224 .001.115.005.051.012.169-.021.011-.021-.005-.03-.025" fill="#fff"></path>
				<path d="m.495-10.431c.018.072.007.127-.026.19-.053.101-.112.062-.165.128-.05.063-.099.277-.079.363-.169.058-.01.227-.015.35-.002.05-.041.105-.045.161-.01.119.017.266.068.37 .097.198.268.413.435.544 .19.148.365.572.608.631 .178.042.384-.105.543-.143 .181-.043.398.01.572-.053 .222-.079.127-.337.288-.45 .104-.074.287-.01.406-.051 .2-.069.339-.263.376-.46 .016-.082.01-.144.039-.22 .039-.103.111-.16.09-.293-.01-.062-.052-.12-.064-.187-.022-.114.002-.224 0-.337-.003-.2.017-.379-.078-.55-.38-.688-1.236-.929-1.975-.789-.18.034-.287.126-.442.207-.17.088-.139.166-.318.224-.081.026-.216.124-.215.224 .001.115.005.051.012.169-.021.011-.021-.005-.03-.025" fill="#fff"></path>
			
		
		
			<path d="m69.439-2.778c.018.072.008.127-.026.19-.052.101-.113.063-.165.128-.051.062-.099.276-.079.362-.169.058-.01.227-.015.35-.002.05-.041.105-.045.161-.01.119.017.266.068.37 .097.198.268.413.435.544 .19.148.365.572.608.631 .177.042.384-.104.543-.143 .18-.043.397.01.571-.053 .222-.079.127-.337.288-.45 .104-.074.287-.01.406-.051 .2-.07.339-.263.376-.46 .016-.082.01-.145.039-.221 .038-.103.111-.16.09-.293-.01-.062-.051-.12-.064-.187-.021-.114.002-.224 0-.337-.003-.2.017-.379-.078-.55-.38-.688-1.236-.929-1.975-.789-.18.034-.287.126-.442.207-.17.088-.139.166-.318.224-.081.026-.215.124-.215.224 .002.115.005.051.012.169-.021.011-.021-.005-.03-.025" fill="#fff"></path>
			<path d="m61.778-2.778c.018.072.007.127-.026.19-.052.101-.112.063-.165.128-.05.062-.099.276-.079.362-.169.058-.01.227-.015.35-.002.05-.041.105-.045.161-.01.119.017.266.068.37 .097.198.268.413.435.544 .19.148.365.572.608.631 .178.042.384-.104.544-.143 .18-.043.397.01.571-.053 .222-.079.127-.337.288-.45 .104-.074.287-.01.406-.051 .2-.069.339-.263.376-.46 .016-.082.01-.145.039-.221 .039-.103.111-.16.09-.293-.01-.062-.052-.12-.064-.187-.022-.114.002-.224 0-.337-.003-.2.017-.379-.078-.55-.38-.688-1.236-.929-1.975-.789-.18.034-.287.126-.442.207-.17.088-.139.166-.318.224-.081.028-.216.125-.215.225 .001.115.005.051.012.169-.021.011-.021-.005-.03-.025" fill="#fff"></path>
			<path d="m54.118-2.778c.018.072.007.127-.026.19-.052.101-.112.063-.165.128-.05.062-.099.276-.079.362-.169.058-.01.227-.015.35-.002.05-.041.105-.045.161-.01.119.017.266.068.37 .097.198.268.413.435.544 .19.148.365.572.608.631 .178.042.384-.104.543-.143 .18-.043.397.01.571-.053 .222-.079.127-.337.288-.45 .104-.074.287-.01.406-.051 .2-.069.339-.263.376-.46 .016-.082.01-.145.039-.221 .039-.103.111-.16.09-.293-.01-.062-.052-.12-.064-.187-.022-.114.002-.224 0-.337-.003-.2.017-.379-.078-.55-.38-.688-1.236-.929-1.975-.789-.18.034-.287.126-.442.207-.17.088-.139.166-.318.224-.08.028-.215.125-.214.225 .001.115.005.051.012.169-.021.011-.021-.005-.03-.025" fill="#fff"></path>
			<path d="m46.458-2.778c.018.072.007.127-.026.19-.053.101-.112.062-.165.128-.05.062-.099.276-.079.362-.169.058-.01.227-.015.35-.002.05-.041.105-.045.161-.01.119.017.266.068.37 .097.198.268.413.435.544 .19.148.365.572.608.631 .177.042.384-.104.543-.143 .18-.043.397.01.571-.053 .222-.079.127-.337.288-.45 .104-.074.287-.01.406-.051 .2-.069.339-.263.376-.46 .016-.082.01-.145.039-.221 .039-.103.111-.16.09-.293-.01-.062-.052-.12-.064-.187-.022-.114.002-.224 0-.337-.003-.2.017-.379-.078-.55-.38-.688-1.236-.929-1.975-.789-.18.034-.287.126-.442.207-.17.088-.139.166-.318.224-.081.028-.216.125-.215.225 .001.115.005.051.012.169-.021.011-.021-.005-.03-.025" fill="#fff"></path>
			<path d="m38.797-2.778c.018.072.007.127-.026.19-.053.101-.112.062-.165.128-.05.062-.099.276-.079.362-.169.058-.01.227-.015.35-.002.05-.041.105-.045.161-.01.119.017.266.068.37 .097.198.268.413.435.544 .19.148.365.572.608.631 .178.042.384-.104.544-.143 .18-.043.397.01.571-.053 .222-.079.127-.337.288-.45 .104-.074.287-.01.406-.051 .2-.069.339-.263.376-.46 .016-.082.01-.145.039-.221 .039-.103.111-.16.09-.293-.01-.062-.052-.12-.064-.187-.022-.114.002-.224 0-.337-.003-.2.017-.379-.078-.55-.38-.688-1.236-.929-1.975-.789-.18.034-.287.126-.442.207-.17.088-.139.166-.318.224-.081.028-.216.125-.215.225 .001.115.005.051.012.169-.021.011-.021-.005-.03-.025" fill="#fff"></path>
			<path d="m31.137-2.778c.018.072.007.127-.026.19-.053.101-.112.062-.165.128-.05.062-.099.276-.079.362-.169.058-.01.227-.015.35-.002.05-.041.105-.045.161-.01.119.017.266.068.37 .097.198.268.413.435.544 .19.148.365.572.608.631 .177.042.384-.104.543-.143 .18-.043.397.01.571-.053 .222-.079.127-.337.288-.45 .104-.074.287-.01.406-.051 .2-.069.339-.263.376-.46 .016-.082.01-.145.039-.221 .039-.103.111-.16.09-.293-.01-.062-.052-.12-.064-.187-.022-.114.002-.224 0-.337-.003-.2.017-.379-.078-.55-.38-.688-1.236-.929-1.975-.789-.18.034-.287.126-.442.207-.17.088-.139.166-.318.224-.081.028-.215.125-.214.225 .001.115.005.051.012.169-.021.011-.021-.005-.03-.025" fill="#fff"></path>
			<path d="m23.477-2.778c.018.072.007.127-.026.19-.053.101-.112.062-.165.128-.05.062-.099.276-.079.362-.169.058-.01.227-.015.35-.002.05-.041.105-.045.161-.01.119.017.266.068.37 .097.198.268.413.435.544 .19.148.365.572.608.631 .177.042.384-.104.543-.143 .18-.043.397.01.571-.053 .222-.079.127-.337.288-.45 .104-.074.287-.01.406-.051 .2-.069.339-.263.376-.46 .016-.082.01-.145.039-.221 .039-.103.111-.16.09-.293-.01-.062-.052-.12-.064-.187-.022-.114.002-.224 0-.337-.003-.2.017-.379-.078-.55-.38-.688-1.236-.929-1.975-.789-.18.034-.287.126-.442.207-.17.088-.139.166-.318.224-.081.026-.216.124-.215.224 .001.115.005.051.012.169-.021.011-.021-.005-.03-.025" fill="#fff"></path>
			<path d="m15.816-2.778c.018.072.007.127-.026.19-.053.101-.112.062-.165.128-.05.062-.099.276-.079.362-.169.058-.01.227-.015.35-.002.05-.041.105-.045.161-.01.119.017.266.068.37 .097.198.268.413.435.544 .19.148.365.572.608.631 .177.042.384-.104.543-.143 .18-.043.397.01.571-.053 .222-.079.127-.337.288-.45 .104-.074.287-.01.406-.051 .2-.069.339-.263.376-.46 .016-.082.01-.145.039-.221 .039-.103.111-.16.09-.293-.01-.062-.052-.12-.064-.187-.022-.114.002-.224 0-.337-.003-.2.017-.379-.078-.55-.38-.688-1.236-.929-1.975-.789-.18.034-.287.126-.442.207-.17.088-.139.166-.318.224-.081.026-.216.124-.215.224 .001.115.005.051.012.169-.02.012-.021-.004-.03-.024" fill="#fff"></path>
			<path d="m8.156-2.778c.018.072.007.127-.026.19-.053.101-.112.063-.165.128-.05.062-.099.276-.079.362-.169.058-.01.227-.015.35-.003.05-.041.105-.045.161-.01.119.017.266.068.37 .097.198.268.413.435.544 .19.148.365.572.608.631 .177.042.384-.104.543-.143 .18-.043.397.01.571-.053 .222-.079.127-.337.288-.45 .104-.074.287-.01.406-.051 .2-.069.339-.263.376-.46 .016-.082.01-.145.039-.221 .039-.103.111-.16.09-.293-.01-.062-.052-.12-.064-.187-.022-.114.002-.224 0-.337-.003-.2.017-.379-.078-.55-.38-.688-1.236-.929-1.975-.789-.179.036-.286.128-.441.209-.17.088-.139.166-.318.224-.082.026-.216.123-.215.223 .001.115.005.051.011.169-.02.011-.021-.005-.03-.025" fill="#fff"></path>
			<path d="m.495-2.778c.018.072.008.127-.026.19-.052.101-.113.063-.165.128-.051.063-.099.276-.079.362-.169.058-.01.227-.015.35-.002.05-.041.105-.045.161-.01.119.017.266.068.37 .097.198.268.413.435.544 .19.148.365.572.608.631 .178.042.384-.104.543-.143 .181-.043.398.01.572-.052 .222-.079.127-.337.288-.45 .104-.074.287-.01.406-.051 .2-.07.339-.263.376-.46 .016-.082.01-.145.039-.221 .038-.103.111-.16.09-.293-.01-.062-.051-.12-.064-.187-.021-.114.002-.224 0-.337-.003-.2.017-.379-.078-.55-.38-.688-1.236-.929-1.975-.789-.18.035-.286.127-.442.208-.17.088-.139.166-.318.224-.081.026-.215.123-.215.223 .002.115.005.051.012.169-.021.011-.022-.005-.031-.025" fill="#fff"></path>
		
	
</pattern></defs>


	
	
	<path d="m318.627,191.345-42.85-127.627 6.892,1.386c-.563,2.401.902,4.816 3.304,5.41 2.419.599 4.869-.877 5.47-3.298s-.878-4.868-3.301-5.469c-2.095-.518-4.205.523-5.125,2.384l-58.157-17.148-54.361-16.029-.509-9.298c5.801-.21 10.444-4.966 10.444-10.818 .001-5.985-4.855-10.838-10.84-10.838s-10.837,4.853-10.837,10.838c0,5.288 3.79,9.686 8.8,10.64l-.477,8.708-53.88-10.838-60.542-12.179c.08-2.094-1.315-4.028-3.429-4.552-2.419-.599-4.867.879-5.466,3.299s.877,4.869 3.297,5.468 4.865-.876 5.468-3.292l5.889,1.736-42.537,127.155h-15.88c0,0 9.255,20.324 58.069,20.324s54.804-20.324 54.804-20.324h-10.446l-42.542-126.721 51.784,15.269 54.78,16.151-11.758,214.818c0,0 .461,9.693-14.772,12.002s-34.621,3.229-43.853,8.309-10.617,11.078-10.617,11.078h80.318 6.001 80.319c0,0-1.386-6-10.615-11.078s-28.621-6.001-43.854-8.309-14.772-12.002-14.772-12.002l-11.704-213.833 52.188,10.499 51.506,10.362-42.755,127.817h-11.623c0,0 9.255,20.324 58.068,20.324s54.804-20.324 54.804-20.324h-14.703zm-219.695-54.362h-79.558l39.709-118.71 39.849,118.71zm136.642,54.362 39.708-118.709 39.85,118.709h-79.558z"></path>

</svg>
